<svg width="325" height="99" viewBox="0 0 325 99" fill="none" xmlns="http://www.w3.org/2000/svg">
<g clip-path="url(#clip0_2077_3507)">
<path d="M225.344 70.5857H215.008V98.2484H225.344V70.5857Z" fill="#F0FFFC"/>
<path d="M322.457 66.3435C319.488 62.515 313.795 61.4368 309.222 63.5388L290.112 72.3125V67.8807C290.112 64.9732 287.554 62.6177 284.397 62.6177H240.101C234.171 62.6177 229.206 66.3692 227.813 71.43C227.813 71.43 227.412 73.763 227.412 74.3022V98.7268H251.888C257.501 98.7268 263.117 98.6691 268.73 98.7204C272.844 98.7589 276.98 98.6691 280.924 97.4945C285.003 96.2815 288.613 94.2052 292.432 92.4979C296.684 90.5981 300.895 88.6149 305.121 86.6733C309.646 84.5938 314.174 82.5175 318.699 80.438C324.302 77.8675 326.253 71.2407 322.457 66.3435ZM290.786 74.5589C290.722 78.5639 287.371 82.0233 282.988 82.6042C276.942 83.4064 267.263 83.4738 264.153 83.4738C263.537 83.4738 263.178 83.4738 263.159 83.4738L263.171 82.2319C263.293 82.2319 275.652 82.325 282.798 81.3783C286.531 80.8841 289.387 77.9445 289.438 74.5428V74.3952H290.789V74.5621L290.786 74.5589Z" fill="#F0FFFC"/>
<path d="M271.915 41.1518L270.57 39.9034C270.949 39.406 271.251 38.8316 271.568 38.2219C272.891 35.7027 273.972 32.7407 281.587 31.8806L282.184 33.9248C275.458 34.6854 274.251 36.9799 273.086 39.2006C272.743 39.8521 272.39 40.5292 271.912 41.155L271.915 41.1518Z" fill="#F0FFFC"/>
<path d="M270.359 48.9435C270.321 48.8472 266.55 39.1878 259.182 38.0774L259.564 35.9241C268.324 37.243 272.426 47.7722 272.596 48.2214L270.359 48.9435Z" fill="#F0FFFC"/>
<path d="M290.586 47.8329C292.415 44.9478 296.568 36.1163 282.268 31.8867C281.527 31.6685 280.763 32.1434 280.686 32.8559C280.355 35.9077 280.503 43.462 288.901 48.2212C289.479 48.5485 290.246 48.3752 290.586 47.8361V47.8329ZM290.198 46.1384C291.138 42.5442 290.4 38.2247 287.428 35.9045C286.398 35.099 285.124 34.5503 283.821 34.0336C290.65 35.237 293.25 40.7856 290.198 46.1352V46.1384Z" fill="#F0FFFC"/>
<path d="M259.45 35.9306C244.563 35.6225 246.482 47.6792 247.586 51.8479C247.791 52.6213 248.67 53.077 249.492 52.8234C262.534 48.8088 261.597 39.9645 260.862 36.98C260.714 36.3735 260.124 35.9434 259.45 35.9274V35.9306ZM248.882 42.6762C249.55 37.9556 253.847 36.5147 257.768 37.4132C253.856 37.3715 250.666 39.5633 248.882 42.6762Z" fill="#F0FFFC"/>
<path d="M273.139 54.0332H270.238V24.0311C270.238 12.9917 267.173 8.56955 265.238 8.377C264.07 8.25826 262.405 9.85641 261.5 13.6368L258.666 13.0623C260.049 7.28269 263.127 5.48237 265.55 5.72305C269.218 6.0921 273.136 11.0951 273.136 24.0311V54.0332H273.139Z" fill="#F0FFFC"/>
<path d="M259.95 10.5651C257.043 12.6542 249.511 19.5442 261.272 28.4977C261.882 28.9598 262.8 28.7801 263.162 28.135C264.722 25.372 267.678 18.1932 261.699 10.7865C261.288 10.2762 260.496 10.1768 259.95 10.5651ZM259.623 12.3012C257.264 15.3659 256.195 19.6982 258.047 22.917C258.689 24.0338 259.668 24.9933 260.685 25.9304C254.732 22.426 254.552 16.2901 259.623 12.298V12.3012Z" fill="#F0FFFC"/>
<path d="M158.193 64.5334C158.193 64.5334 146.797 78.9809 158.193 79.0194C169.588 78.9809 158.193 64.5334 158.193 64.5334ZM158.193 77.8064C162.868 77.033 161.562 72.7263 160.474 70.5794C162.734 73.365 163.886 78.3423 158.193 77.8064Z" fill="#F0FFFC"/>
<path d="M138.422 72.9507C138.422 72.9507 121.061 94.9589 138.422 95.0166C155.784 94.9589 138.422 72.9507 138.422 72.9507ZM138.422 93.1714C145.543 91.9936 143.557 85.431 141.898 82.1609C145.338 86.4065 147.096 93.9865 138.422 93.1714Z" fill="#F0FFFC"/>
<path d="M114.884 68.6313C114.884 68.6313 101.653 85.4055 114.884 85.4504C128.116 85.4055 114.884 68.6313 114.884 68.6313ZM114.884 84.0416C120.311 83.143 118.796 78.1432 117.532 75.6497C120.154 78.8845 121.495 84.6609 114.884 84.0416Z" fill="#F0FFFC"/>
<path d="M175.702 76.6641C175.702 76.6641 158.341 98.6722 175.702 98.73C193.064 98.6722 175.702 76.6641 175.702 76.6641ZM175.702 96.8816C182.824 95.7038 180.837 89.1412 179.178 85.8711C182.618 90.1167 184.377 97.6967 175.702 96.8816Z" fill="#F0FFFC"/>
<path d="M201.054 34.7269C198.875 30.5711 196.044 29.2329 187.97 28.3761C187.967 25.0482 187.033 21.5888 184.841 18.2673C181.738 13.5691 176.462 10.4402 170.631 9.90753C166.174 9.49997 162.12 10.4017 158.741 12.1956C157.618 12.7925 156.177 12.5037 155.439 11.5025C150.397 4.64778 141.688 0.113281 131.778 0.113281C118.63 0.113281 107.588 8.09759 104.443 18.9027C104.109 20.0484 103.185 20.9213 101.991 21.2967C95.6787 23.2735 89.7354 32.3072 89.7354 38.5426V39.1138C89.7354 51.2603 100.152 61.1091 112.998 61.1091H188.204C196.201 61.1091 202.687 54.9797 202.687 47.419V41.5752C202.687 39.2069 202.164 36.8481 201.054 34.7269ZM149.48 11.5442C144.878 7.61301 138.873 5.20937 132.641 4.99115C144.669 3.80378 150.025 8.61426 153.838 15.8027C152.438 14.3586 151.062 12.8054 149.48 11.5442ZM184.363 27.2817C184.247 28.1322 184.302 28.9954 184.222 29.8362C183.894 28.206 183.673 26.5148 183.095 24.9519C181.558 20.0901 177.611 16.5665 172.508 15.0261C181.311 15.7995 185.107 21.8647 184.363 27.2817ZM189.067 58.1632C182.896 58.5097 176.68 58.1888 170.496 58.1311C165.57 58.0284 160.647 57.8262 155.721 57.5278C165.564 56.9148 175.416 56.7768 185.271 56.7544C197.764 56.013 200.373 48.0319 199.228 38.1478C201.772 48.2341 199.751 56.5137 189.067 58.1632Z" fill="#F0FFFC"/>
<path d="M70.3907 98.7299C70.1308 98.7299 69.8708 98.6657 69.6365 98.5277C37.6576 79.8153 5.17483 98.3383 4.85071 98.5277C4.19284 98.9128 3.32317 98.7331 2.90598 98.1265C2.4888 97.5232 2.68455 96.7209 3.33921 96.3358C3.6858 96.1337 11.9846 91.3328 24.5194 88.8875C36.1172 86.625 53.623 86.0827 71.1448 96.3358C71.8027 96.7209 71.9953 97.5232 71.5781 98.1265C71.3085 98.5148 70.8528 98.7266 70.3875 98.7299H70.3907Z" fill="#F0FFFC"/>
<path d="M37.2477 88.3483C36.4679 88.3483 35.8389 87.7674 35.8389 87.0518V33.9439C35.8389 33.2283 36.4711 32.6475 37.2477 32.6475C38.0243 32.6475 38.6565 33.2283 38.6565 33.9439V87.0518C38.6565 87.7674 38.0243 88.3483 37.2477 88.3483Z" fill="#F0FFFC"/>
<path d="M38.3274 71.4489L36.1709 69.7801C36.7774 69.1126 37.262 68.3456 37.7723 67.5337C39.8903 64.1706 42.2939 60.3581 54.5143 59.2061L54.7999 61.7894C44.0108 62.8035 42.0789 65.8714 40.2112 68.8366C39.6624 69.7095 39.0944 70.6113 38.3274 71.4489Z" fill="#F0FFFC"/>
<path d="M35.9148 79.7636C35.8699 79.6481 31.3803 68.1594 22.6162 66.8372L23.0719 64.2764C33.4919 65.8456 38.373 78.3709 38.5752 78.9036L35.9148 79.7636Z" fill="#F0FFFC"/>
<path d="M33.8162 2.01968C31.8907 0.790582 29.2625 1.2527 27.9114 3.01772C9.52312 27.0444 27.1316 47.2844 34.4195 54.0557C35.9792 55.5062 38.4983 55.6025 40.1831 54.2771C71.363 29.7433 43.9667 8.4989 33.8162 2.01968ZM33.521 6.11773C41.8166 10.6683 51.1808 20.7257 48.8734 30.1958C47.2753 19.7341 40.5297 12.6772 33.521 6.11773Z" fill="#F0FFFC"/>
<path d="M75.7054 47.1206C61.0814 46.3986 53.9668 55.5125 51.5727 59.495C51.0144 60.4256 51.515 61.6002 52.6189 61.9083C73.966 67.8644 76.9954 53.8534 77.4094 48.9017C77.4864 47.9774 76.713 47.1687 75.7054 47.1174V47.1206ZM56.4891 60.4995C58.5526 60.8813 60.6096 61.2023 62.6089 61.0225C68.3629 60.5027 73.2311 55.7981 75.3813 50.6795C74.1971 59.5913 65.9368 64.344 56.4923 60.5027L56.4891 60.4995Z" fill="#F0FFFC"/>
<path d="M25.9972 68.214C17.2138 54.0489 5.03841 63.2398 1.10081 66.8341C0.369127 67.5016 0.404427 68.6055 1.18745 69.2217C13.626 79.0063 22.8426 72.7036 25.6988 70.1876C26.2796 69.6774 26.3951 68.859 25.9972 68.2172V68.214ZM12.0503 62.4279C17.6888 60.1623 21.9152 63.3137 23.324 67.5433C20.9717 63.8464 16.5913 62.1937 12.0503 62.4279Z" fill="#F0FFFC"/>
</g>
<defs>
<clipPath id="clip0_2077_3507">
<rect width="323.849" height="98.6164" fill="white" transform="translate(0.575195 0.113281)"/>
</clipPath>
</defs>
</svg>
