<svg width="324" height="111" viewBox="0 0 324 111" fill="none" xmlns="http://www.w3.org/2000/svg">
<g clip-path="url(#clip0_2077_3564)">
<path d="M315.747 95.3572H236.095V102.623H315.747V95.3572Z" fill="#F0FFFC"/>
<path d="M252.954 42.3198H240.271V93.7653H252.954V42.3198Z" fill="#F0FFFC"/>
<path d="M311.566 42.3198H298.884V93.7653H311.566V42.3198Z" fill="#F0FFFC"/>
<path d="M292.03 42.3198H279.348V93.7653H292.03V42.3198Z" fill="#F0FFFC"/>
<path d="M272.492 42.3198H259.81V93.7653H272.492V42.3198Z" fill="#F0FFFC"/>
<path d="M315.748 33.4592H236.096V40.7247H315.748V33.4592Z" fill="#F0FFFC"/>
<path d="M275.92 33.9408H323.401L299.663 19.4291L275.92 4.91748L252.182 19.4291L228.439 33.9408H275.92Z" fill="#F0FFFC"/>
<path d="M29.3256 33.5234L22.4834 102.205H58.8113L52.3642 33.5234H29.3256Z" fill="#F0FFFC"/>
<path d="M52.2083 31.8549L51.6847 26.2935H30.0499L29.4941 31.8549H52.2083Z" fill="#F0FFFC"/>
<path d="M40.7404 17.1475C41.1612 18.3156 42.5072 18.9671 43.6572 19.2206C45.0353 19.5254 46.5707 19.4837 47.9649 19.3072C49.3397 19.1307 49.8409 18.2482 50.101 17.048C51.1001 18.3798 53.0082 18.521 54.579 18.521C55.9571 18.521 57.7463 18.3798 58.5108 17.1154C58.8385 18.5627 60.1202 19.6121 61.5657 19.9747C63.567 20.4753 65.6132 19.6313 67.3254 18.659C67.8779 20.7192 68.7388 22.8501 71.1577 23.1582C73.1654 23.4117 76.4708 23.508 77.2964 21.2327C77.5469 22.128 77.9131 23.0779 78.7676 23.5465C79.349 23.8642 80.0493 23.8995 80.695 23.9444C81.4467 23.9925 82.2016 24.0022 82.95 23.9252C85.2982 23.6877 87.7171 22.4714 88.4141 20.1127C90.8073 21.9419 94.4693 19.4484 95.6515 17.2855C96.3453 16.0179 96.4706 14.5256 95.7543 13.2388C95.1375 12.1284 93.9971 11.3101 92.6994 11.3358C93.5185 10.312 93.4446 8.79413 92.6608 7.75116C91.7453 6.53169 90.1167 6.12092 88.6422 6.23324C89.2172 4.23717 87.2224 2.74492 85.4428 2.36625C84.1803 2.09668 82.8472 2.08384 81.5623 2.0678C80.2645 2.05175 78.97 2.1031 77.6754 2.20579C77.6754 2.20579 77.6754 2.20258 77.6754 2.19937C77.4763 0.983114 75.7063 0.565927 74.6912 0.33487C73.3196 0.023585 71.8515 0.0107485 70.5184 0.479281C68.3309 1.24626 66.6733 3.49265 67.1198 5.80001C65.7739 5.19991 64.1677 5.43417 63.0595 6.38728C63.2618 5.06833 62.25 3.94514 61.0582 3.406C58.4048 2.20579 54.9484 2.55559 52.5135 4.09597C51.4984 4.73779 50.57 5.69411 50.3805 6.91037C50.2392 7.81534 50.509 8.76204 51.1868 9.37177C48.617 9.13429 46.3651 11.0919 46.3491 13.6656C45.1702 12.8569 43.67 13.3768 42.6003 14.1758C41.6912 14.8562 40.2618 15.8478 40.7308 17.1475H40.7404Z" fill="#F0FFFC"/>
<path d="M88.1572 63.2529H64.7363V66.6225H88.1572V63.2529Z" fill="#F0FFFC"/>
<path d="M20.0653 33.5234H7.8457V45.2592H20.0653V33.5234Z" fill="#F0FFFC"/>
<path d="M0.400391 46.3376V102.205H21.1454L26.3076 46.3376H0.400391ZM10.1818 67.8645H5.51116V52.0531H10.1818V67.8645ZM18.627 93.2615H13.9563V77.4501H18.627V93.2615Z" fill="#F0FFFC"/>
<path d="M97.9977 75.1685V67.8645H57.1533L57.8279 75.1685H97.9977Z" fill="#F0FFFC"/>
<path d="M57.9326 76.282L60.329 102.202H97.9964V76.282H57.9326ZM70.5537 91.2493H64.1452V85.3542H70.5537V91.2493ZM81.1704 91.2493H74.7619V85.3542H81.1704V91.2493ZM91.787 91.2493H85.3785V85.3542H91.787V91.2493Z" fill="#F0FFFC"/>
<path d="M123.852 7.93066H118.979V110.774H123.852V7.93066Z" fill="#F0FFFC"/>
<path d="M219.122 95.5977H107.314V100.081H219.122V95.5977Z" fill="#F0FFFC"/>
<path d="M147.32 21.7781H132.077V88.5247H147.32V21.7781Z" fill="#F0FFFC"/>
<path d="M169.128 63.8916H153.886V88.5249H169.128V63.8916Z" fill="#F0FFFC"/>
<path d="M190.931 78.9585H175.688V88.5249H190.931V78.9585Z" fill="#F0FFFC"/>
<path d="M212.739 43.4849H197.497V88.525H212.739V43.4849Z" fill="#F0FFFC"/>
<path d="M188.273 54.7775H165.98C165.485 54.7775 165.042 54.5047 164.852 54.0843L146.504 13.2322H132.074C131.403 13.2322 130.856 12.7315 130.856 12.1122C130.856 11.4928 131.403 10.9922 132.074 10.9922H147.316C147.811 10.9922 148.254 11.265 148.444 11.6854L166.792 52.5375H187.3L192.436 31.736C192.584 31.1327 193.236 30.7508 193.895 30.892C194.55 31.03 194.961 31.6301 194.813 32.2334L189.462 53.9078C189.336 54.4181 188.842 54.7807 188.273 54.7807V54.7775Z" fill="#F0FFFC"/>
<path d="M196.767 40.2757C196.214 40.2757 195.713 39.9291 195.581 39.4124L193.757 32.2818L188.27 37.5897C187.808 38.0389 187.033 38.055 186.548 37.6282C186.06 37.2014 186.041 36.4921 186.503 36.0461L193.542 29.2363C193.85 28.9379 194.313 28.8191 194.743 28.925C195.177 29.0341 195.508 29.3486 195.61 29.7498L197.952 38.8958C198.106 39.4991 197.702 40.1024 197.046 40.2436C196.953 40.2629 196.857 40.2725 196.767 40.2725V40.2757Z" fill="#F0FFFC"/>
</g>
<defs>
<clipPath id="clip0_2077_3564">
<rect width="323" height="110.663" fill="white" transform="translate(0.400391 0.113281)"/>
</clipPath>
</defs>
</svg>
