<svg width="1090" height="4" viewBox="0 0 1090 4" fill="none" xmlns="http://www.w3.org/2000/svg">
<path d="M1089.86 3.21559H1058.74V0H1089.86V3.21559ZM1027.62 3.21559H996.493V0H1027.62V3.21559ZM965.374 3.21559H934.25V0H965.374V3.21559ZM903.126 3.21559H872.003V0H903.126V3.21559ZM840.879 3.21559H809.755V0H840.879V3.21559ZM778.632 3.21559H747.508V0H778.632V3.21559ZM716.385 3.21559H685.261V0H716.385V3.21559ZM654.137 3.21559H623.014V0H654.137V3.21559ZM591.89 3.21559H560.766V0H591.89V3.21559ZM529.647 3.21559H498.523V0H529.647V3.21559ZM467.4 3.21559H436.276V0H467.4V3.21559ZM405.153 3.21559H374.029V0H405.153V3.21559ZM342.905 3.21559H311.782V0H342.905V3.21559ZM280.658 3.21559H249.534V0H280.658V3.21559ZM218.411 3.21559H187.287V0H218.411V3.21559ZM156.168 3.21559H125.044V0H156.168V3.21559ZM93.9207 3.21559H62.7971V0H93.9207V3.21559ZM31.6734 3.21559H0.549805V0H31.6734V3.21559Z" fill="#B6E2E0"/>
</svg>
