<svg width="369" height="104" viewBox="0 0 369 104" fill="none" xmlns="http://www.w3.org/2000/svg">
<g clip-path="url(#clip0_2077_3537)">
<path d="M220.489 21.4155C226.65 21.4155 231.644 16.6468 231.644 10.7644C231.644 4.88194 226.65 0.113281 220.489 0.113281C214.328 0.113281 209.334 4.88194 209.334 10.7644C209.334 16.6468 214.328 21.4155 220.489 21.4155Z" fill="#F0FFFC"/>
<path d="M202.248 41.8931L199.921 44.3834H199.35H188.445H173.516C172.81 44.3834 172.239 43.7865 172.239 43.0484V33.6745C172.239 32.9364 172.81 32.3395 173.516 32.3395H194.389C194.931 32.3395 195.454 32.1117 195.833 31.7041L204.17 22.8116C204.629 22.2308 205.309 21.897 206.031 21.897C206.031 21.897 209.853 21.897 211.371 21.897C211.766 21.897 212.138 22.0479 212.446 22.3014C214.645 24.1017 217.417 25.18 220.427 25.18C223.438 25.18 226.207 24.1017 228.418 22.295C228.73 22.0415 229.105 21.8906 229.496 21.8906H235.475C236.011 21.8906 236.496 22.2212 236.714 22.7314L250.205 54.5018C250.558 55.3361 250.199 56.3117 249.399 56.684L241.871 60.1755C241.072 60.5445 240.138 60.1691 239.785 59.3347L236.557 51.7323C236.534 51.6777 236.454 51.6938 236.454 51.7548V99.4488C236.454 101.438 234.91 103.053 233.004 103.053H227.308C225.402 103.053 223.858 101.438 223.858 99.4488V72.0557C223.858 70.0821 222.404 68.3556 220.517 68.3042C218.579 68.2529 216.994 69.8767 216.994 71.892V99.452C216.994 101.442 215.45 103.056 213.544 103.056H207.848C205.942 103.056 204.398 101.442 204.398 99.452V68.3042L204.369 39.9837C204.369 39.8489 204.215 39.7847 204.125 39.881L202.691 41.4117C202.248 41.8867 201.802 42.3584 201.359 42.8334" fill="#F0FFFC"/>
<path d="M174.385 103.062H151.035C150.069 103.062 149.283 102.279 149.283 101.31V98.8099C149.283 98.5596 149.485 98.3542 149.739 98.3542H175.681C175.932 98.3542 176.137 98.5564 176.137 98.8099V101.31C176.137 102.276 175.354 103.062 174.385 103.062Z" fill="#F0FFFC"/>
<path d="M184.129 53.9626H141.294C140.402 53.9626 139.705 54.6975 139.808 55.548L144.301 94.9721C144.461 96.4226 145.889 97.5297 147.584 97.5297H178.311C180.018 97.5297 181.446 96.4098 181.594 94.9464L185.625 55.5287C185.711 54.6911 185.015 53.9626 184.132 53.9626H184.129ZM173.488 80.1844L169.637 80.332L167.012 75.8232L170.019 74.2315L173.488 80.1844ZM165.359 73.718L162.76 73.0987L165.718 71.186L168.687 69.267L168.324 71.8054L167.955 74.3374L165.356 73.718H165.359ZM155.103 75.1493L157.599 74.2283L158.296 76.6961L158.986 79.1703L155.799 77.6235L152.606 76.0767L155.103 75.1493ZM153.906 84.3916L153.806 84.2761L151.691 81.7184L154.156 77.0876L157.224 78.5702L155.886 81.1022L154.137 84.3884H153.909L153.906 84.3916ZM161.547 84.3916H154.406L156.149 81.1054H161.547V84.3916ZM159.753 74.2989L156.739 72.7072L160.202 66.7414L162.365 69.7933L159.753 74.3021V74.2989ZM160.333 66.5103L160.439 66.3178L160.593 66.2985L161.068 66.2215L163.963 65.769L164.351 66.3114L167.012 70.0725L164.159 71.9145L162.496 69.5622L160.333 66.5103ZM164.695 84.0899L162.638 82.4533L164.56 80.6754L166.489 78.8976L166.623 82.3121L166.758 85.7266L164.695 84.0899ZM173.677 80.7396L172.371 83.753L166.931 83.9455L166.797 80.6658L169.772 80.5567L173.622 80.4155L173.735 80.608L173.674 80.7428L173.677 80.7396Z" fill="#F0FFFC"/>
<path d="M161.632 41.3892C162.627 41.2512 163.766 41.2576 164.931 41.6042C166.035 41.9379 167.017 42.5412 167.877 43.3917C168.008 43.3275 168.143 43.2633 168.275 43.1895C170.136 42.1465 171.201 40.574 170.649 39.6787C170.438 39.3321 170.014 39.1364 169.465 39.0882C168.554 39.008 167.71 38.5042 167.424 37.673C167.27 37.2301 167.01 36.9092 166.644 36.7809C166.253 36.6429 165.8 36.7456 165.351 37.0344C164.806 37.381 164.061 37.3585 163.564 36.9542C163.121 36.5915 162.652 36.4311 162.229 36.5434C161.179 36.8194 160.791 38.655 161.362 40.6414C161.439 40.9046 161.529 41.1517 161.629 41.3892H161.632Z" fill="#F0FFFC"/>
<path d="M170.729 53.3785C170.527 48.3273 168.698 43.4142 164.95 42.1337C159.369 40.2275 151.561 47.0822 148.782 53.279L170.726 53.3785H170.729Z" fill="#F0FFFC"/>
<path d="M311.901 1.98438C297.91 1.98438 286.565 12.4269 286.565 25.3115C286.565 38.1962 297.906 48.6387 311.901 48.6387C325.896 48.6387 337.238 38.1962 337.238 25.3115C337.238 12.4269 325.893 1.98438 311.901 1.98438ZM311.298 6.68574C315.146 6.68574 318.265 9.61889 318.265 13.2324C318.265 16.8458 315.146 19.779 311.298 19.779C307.45 19.779 304.331 16.8458 304.331 13.2324C304.331 9.61889 307.45 6.68574 311.298 6.68574ZM329.43 36.2033L325.296 38.4882C324.979 38.6647 324.568 38.5652 324.382 38.2635L320.409 31.9127C320.409 31.9127 320.393 31.9095 320.393 31.9159V37.3008C317.877 36.4055 314.982 35.8952 311.901 35.8952C308.821 35.8952 305.727 36.444 303.15 37.3971V32.3299C303.15 32.3299 303.137 32.317 303.134 32.3267L301.481 34.9678L299.421 38.2603C299.235 38.5588 298.824 38.6583 298.507 38.485L294.373 36.2001C294.056 36.0236 293.95 35.6385 294.136 35.34L303.202 20.8508L303.417 20.4818C303.417 20.4818 303.42 20.4786 303.423 20.4786H307.223C307.223 20.4786 307.226 20.4786 307.229 20.4786C308.448 21.467 310.037 22.0671 311.773 22.0671C313.509 22.0671 315.098 21.467 316.317 20.4786C316.317 20.4786 316.32 20.4786 316.324 20.4786H320.335C320.335 20.4786 320.341 20.4786 320.341 20.4818L320.601 20.854L322.668 24.1562L329.667 35.3464C329.853 35.6449 329.747 36.03 329.43 36.2065V36.2033Z" fill="#F0FFFC"/>
<path d="M280.664 56.408C266.672 56.408 255.328 66.8505 255.328 79.7351C255.328 92.6197 266.669 103.062 280.664 103.062C294.659 103.062 306 92.6197 306 79.7351C306 66.8505 294.659 56.408 280.664 56.408ZM280.061 61.1093C283.909 61.1093 287.028 64.0425 287.028 67.6559C287.028 71.2694 283.909 74.2026 280.061 74.2026C276.213 74.2026 273.094 71.2694 273.094 67.6559C273.094 64.0425 276.213 61.1093 280.061 61.1093ZM298.192 90.6269L294.059 92.9118C293.741 93.0883 293.331 92.9888 293.144 92.6871L289.172 86.3363C289.172 86.3363 289.156 86.3331 289.156 86.3395V91.7244C286.64 90.829 283.745 90.3188 280.664 90.3188C277.583 90.3188 274.49 90.8676 271.913 91.8207V86.7535C271.913 86.7535 271.9 86.7406 271.897 86.7502L270.244 89.3914L268.184 92.6839C267.998 92.9824 267.587 93.0819 267.269 92.9086L263.136 90.6237C262.818 90.4472 262.712 90.0621 262.898 89.7636L271.964 75.2744L272.179 74.9054C272.179 74.9054 272.182 74.9022 272.186 74.9022H275.985C275.985 74.9022 275.988 74.9022 275.992 74.9022C277.211 75.8906 278.8 76.4907 280.536 76.4907C282.272 76.4907 283.86 75.8906 285.08 74.9022C285.08 74.9022 285.083 74.9022 285.086 74.9022H289.098C289.098 74.9022 289.104 74.9022 289.104 74.9054L289.364 75.2776L291.431 78.5798L298.43 89.77C298.616 90.0685 298.51 90.4536 298.192 90.6301V90.6269Z" fill="#F0FFFC"/>
<path d="M343.585 56.408C329.593 56.408 318.249 66.8505 318.249 79.7351C318.249 92.6197 329.59 103.062 343.585 103.062C357.58 103.062 368.921 92.6197 368.921 79.7351C368.921 66.8505 357.58 56.408 343.585 56.408ZM342.982 61.1093C346.83 61.1093 349.949 64.0425 349.949 67.6559C349.949 71.2694 346.83 74.2026 342.982 74.2026C339.134 74.2026 336.015 71.2694 336.015 67.6559C336.015 64.0425 339.134 61.1093 342.982 61.1093ZM361.113 90.6269L356.98 92.9118C356.662 93.0883 356.252 92.9888 356.065 92.6871L352.092 86.3363C352.092 86.3363 352.076 86.3331 352.076 86.3395V91.7244C349.56 90.829 346.666 90.3188 343.585 90.3188C340.504 90.3188 337.411 90.8676 334.834 91.8207V86.7535C334.834 86.7535 334.821 86.7406 334.818 86.7502L333.165 89.3914L331.105 92.6839C330.919 92.9824 330.508 93.0819 330.19 92.9086L326.057 90.6237C325.739 90.4472 325.633 90.0621 325.819 89.7636L334.885 75.2744L335.1 74.9054C335.1 74.9054 335.103 74.9022 335.107 74.9022H338.906C338.906 74.9022 338.909 74.9022 338.913 74.9022C340.132 75.8906 341.721 76.4907 343.457 76.4907C345.193 76.4907 346.781 75.8906 348.001 74.9022C348.001 74.9022 348.004 74.9022 348.007 74.9022H352.019C352.019 74.9022 352.025 74.9022 352.025 74.9054L352.285 75.2776L354.352 78.5798L361.351 89.77C361.537 90.0685 361.431 90.4536 361.113 90.6301V90.6269Z" fill="#F0FFFC"/>
<path d="M327.847 76.6609H297.899V78.5832H327.847V76.6609Z" fill="#F0FFFC"/>
<path d="M281.656 58.8984L279.683 58.2694L293.058 22.6128L295.032 23.2386L281.656 58.8984Z" fill="#F0FFFC"/>
<path d="M340.78 58.8984L327.404 23.2386L329.375 22.6128L342.754 58.2694L340.78 58.8984Z" fill="#F0FFFC"/>
<path d="M101.255 25.5552C108.247 25.5552 113.915 19.8699 113.915 12.8567C113.915 5.84352 108.247 0.158203 101.255 0.158203C94.2628 0.158203 88.5947 5.84352 88.5947 12.8567C88.5947 19.8699 94.2628 25.5552 101.255 25.5552Z" fill="#F0FFFC"/>
<path d="M118.162 27.6379L121.917 34.0401L134.638 55.7434C134.978 56.3243 134.785 57.072 134.208 57.4122L126.695 61.844C126.117 62.1841 125.373 61.9916 125.033 61.4107L117.812 49.0941C117.812 49.0941 117.783 49.0845 117.783 49.1037V99.6828C117.783 101.55 116.275 103.065 114.41 103.065H108.843C106.981 103.065 105.47 101.55 105.47 99.6828V73.9809C105.47 72.1292 104.048 70.5086 102.203 70.4605C100.31 70.4123 98.7596 71.9367 98.7596 73.8268V99.6828C98.7596 101.55 97.2513 103.065 95.3868 103.065H89.819C87.9577 103.065 86.4462 101.55 86.4462 99.6828V70.4605V49.9092C86.4462 49.8932 86.4237 49.8868 86.4173 49.8996L83.4135 55.0214L79.6685 61.4107C79.3283 61.9916 78.5838 62.1841 78.0062 61.844L70.4936 57.4122C69.916 57.072 69.7234 56.3243 70.0636 55.7434L86.5392 27.6379L86.9307 26.9191C86.9307 26.9191 86.9404 26.9094 86.9436 26.9094H93.8464C93.8464 26.9094 93.8528 26.9094 93.856 26.9126C96.0703 28.8285 98.9585 29.9934 102.116 29.9934C105.274 29.9934 108.156 28.8285 110.377 26.9126C110.377 26.9126 110.383 26.9094 110.386 26.9094H117.677C117.677 26.9094 117.687 26.9094 117.69 26.9158L118.162 27.6347V27.6379Z" fill="#F0FFFC"/>
<path d="M31.9286 24.5861C38.9205 24.5861 44.5886 19.1177 44.5886 12.3721C44.5886 5.62657 38.9205 0.158203 31.9286 0.158203C24.9366 0.158203 19.2686 5.62657 19.2686 12.3721C19.2686 19.1177 24.9366 24.5861 31.9286 24.5861Z" fill="#F0FFFC"/>
<path d="M65.3095 55.1083L52.5885 33.1129L48.8338 26.6241L48.3621 25.8956C48.3621 25.8956 48.3525 25.8924 48.3492 25.8892H41.0581C41.0581 25.8892 41.0517 25.8892 41.0485 25.8924C38.831 27.8339 35.946 29.0148 32.7882 29.0148C29.6304 29.0148 26.7422 27.8339 24.5279 25.8924C24.5247 25.8924 24.5215 25.8924 24.5183 25.8892H17.6155C17.6155 25.8892 17.6026 25.8924 17.6026 25.8988L17.2111 26.6273L0.735449 55.1083C0.395282 55.6955 0.587829 56.4529 1.16547 56.7995L8.67804 61.289C9.25568 61.6356 10.0002 61.4399 10.3404 60.8494L14.0854 54.3766L17.0892 49.1842C17.0892 49.1842 17.102 49.1874 17.118 49.1906V53.6802C17.118 55.5319 16.5115 57.3354 15.3883 58.834L3.83546 74.2411C3.35731 74.8797 3.82905 75.775 4.64737 75.775H16.0366C16.6335 75.775 17.118 76.2436 17.118 76.818V99.6349C17.118 101.528 18.6263 103.062 20.4908 103.062H26.0587C27.92 103.062 29.4315 101.528 29.4315 99.6349V77.4341C29.4315 76.5163 30.2016 75.775 31.1515 75.775H34.4216C35.3715 75.775 36.1417 76.5195 36.1417 77.4341V99.6349C36.1417 101.528 37.65 103.062 39.5145 103.062H45.0824C46.9437 103.062 48.4552 101.528 48.4552 99.6349V76.818C48.4552 76.2404 48.9397 75.775 49.5366 75.775H61.3976C62.2159 75.775 62.6876 74.8797 62.2095 74.2411L50.1849 58.2051C49.0617 56.7064 48.4552 54.9029 48.4552 53.0512V48.3755C48.4552 48.3755 48.468 48.3723 48.484 48.3691L55.7046 60.8526C56.0447 61.4399 56.7893 61.6356 57.3669 61.2922L64.8795 56.8027C65.4571 56.4561 65.6496 55.6987 65.3095 55.1115V55.1083Z" fill="#F0FFFC"/>
</g>
<defs>
<clipPath id="clip0_2077_3537">
<rect width="368.353" height="102.949" fill="white" transform="translate(0.566406 0.113281)"/>
</clipPath>
</defs>
</svg>
