<svg width="183" height="78" viewBox="0 0 183 78" fill="none" xmlns="http://www.w3.org/2000/svg">
<path d="M158.678 50.4493V61.2298L142.824 50.5198C142.542 50.3084 142.19 50.1675 141.837 50.1675C141.344 50.1675 140.921 50.5902 140.921 51.0835V65.3165H143.669V54.4656L159.453 65.1756C159.734 65.387 160.087 65.5279 160.439 65.5279C160.932 65.5279 161.355 65.1051 161.355 64.6119V50.4493H158.678Z" fill="white"/>
<path d="M109.566 50.4492H106.818V65.3164H109.566V50.4492Z" fill="white"/>
<path d="M60.3144 50.4492V53.1267H51.4364V65.3164H48.5475V53.1267H39.8808V50.4492H60.3144Z" fill="white"/>
<path d="M106.818 50.4492L91.9512 65.246C91.5285 65.6687 90.8239 65.6687 90.4011 65.246L75.5339 50.4492H79.5501L91.1057 62.0048L102.661 50.4492H106.818Z" fill="white"/>
<path d="M70.038 50.5202C69.6152 50.0974 68.8401 50.0974 68.4174 50.5202L53.6911 65.3169H57.7778L60.5962 62.4985H77.8591L80.6775 65.3169H84.7643L70.038 50.5202ZM63.3442 59.7505L69.2629 53.7614L75.1816 59.7505H63.3442Z" fill="white"/>
<path d="M125.984 50.5202C125.561 50.0974 124.786 50.0974 124.363 50.5202L109.637 65.3169H113.724L116.542 62.4985H133.805L136.623 65.3169H140.71L125.984 50.5202ZM119.22 59.7505L125.138 53.7614L131.057 59.7505H119.22Z" fill="white"/>
<path d="M38.7534 57.9187C37.9784 57.1436 36.9214 56.5799 35.7236 56.5799H25.6477C25.1545 56.5799 23.7453 56.2276 23.7453 54.9593C23.7453 53.9729 24.5204 53.1274 25.5068 53.1274H39.1057V50.3794H25.0136C23.8158 50.3794 22.7588 50.8726 21.9838 51.7181C21.2087 52.4932 20.7155 53.6206 20.7155 54.8184C20.7155 56.8618 21.9133 57.8482 21.9133 57.8482C22.6884 58.6233 23.7453 59.187 24.9431 59.187H35.2304C35.7236 59.187 36.1464 59.3984 36.4282 59.6802C36.7101 59.962 36.9214 60.3848 36.9214 60.8076C36.9919 61.794 36.1464 62.5691 35.1599 62.5691H21.0678V65.2466H35.6532C36.851 65.2466 37.9079 64.7534 38.683 63.9783C39.458 63.2032 39.9513 62.0759 39.9513 60.878C39.9513 58.9051 38.8943 57.9891 38.7534 57.9187Z" fill="white"/>
<mask id="mask0_2001_23" style="mask-type:luminance" maskUnits="userSpaceOnUse" x="69" y="10" width="12" height="21">
<path d="M69.122 22.1244L77.7182 30.7206C76.5908 28.8886 75.6748 26.6339 75.9567 23.4632C76.4499 18.9537 78.7751 15.4306 80.748 10.5688L69.122 22.1244Z" fill="white"/>
</mask>
<g mask="url(#mask0_2001_23)">
<path d="M76.0976 4.79102L90.6125 22.6176L73.7724 36.3574L59.2575 18.5308L76.0976 4.79102Z" fill="url(#paint0_linear_2001_23)"/>
</g>
<mask id="mask1_2001_23" style="mask-type:luminance" maskUnits="userSpaceOnUse" x="79" y="17" width="13" height="28">
<path d="M86.3144 24.8019C86.5258 26.8453 86.103 29.0296 84.9052 30.7206C83.5664 32.6231 81.4526 33.1868 79.2683 32.2003L91.1762 44.1082C91.1762 42.8399 91.0353 34.3846 88.1464 26.6339C87.5827 25.1542 85.9621 21.2084 84.7642 18.6718C84.7642 18.6718 84.4119 17.8968 84.3415 17.7559C85.2575 19.7992 86.103 22.6176 86.3144 24.8019Z" fill="white"/>
</mask>
<g mask="url(#mask1_2001_23)">
<path d="M77.1545 43.9674L79.3388 16.7695L93.29 17.8969L91.1057 45.0947L77.1545 43.9674Z" fill="url(#paint1_linear_2001_23)"/>
</g>
<mask id="mask2_2001_23" style="mask-type:luminance" maskUnits="userSpaceOnUse" x="101" y="13" width="13" height="21">
<path d="M106.396 20.8562C105.902 25.3657 103.577 28.8888 101.604 33.7505L113.23 22.1245L104.634 13.5283C105.832 15.4308 106.748 17.615 106.396 20.8562Z" fill="white"/>
</mask>
<g mask="url(#mask2_2001_23)">
<path d="M106.255 39.458L91.74 21.6314L108.58 7.8916L123.095 25.6477L106.255 39.458Z" fill="url(#paint2_linear_2001_23)"/>
</g>
<mask id="mask3_2001_23" style="mask-type:luminance" maskUnits="userSpaceOnUse" x="81" y="0" width="20" height="45">
<path d="M81.3821 9.79404C81.7344 11.4851 82.8618 14.3035 84.7642 18.6721C86.0325 21.2087 87.6531 25.1545 88.1463 26.6341C90.9647 34.3848 91.1057 42.8401 91.1761 44.1084L100.97 34.3848C100.688 32.6938 99.4905 29.8753 97.588 25.5068C96.3197 22.9702 94.6992 19.0244 94.2059 17.5447C91.3875 9.79404 91.2466 1.33875 91.1761 0L81.3821 9.79404Z" fill="white"/>
</mask>
<g mask="url(#mask3_2001_23)">
<path d="M100.9 -0.70459L102.732 44.0379L81.4526 44.9539L79.6206 0.140938L100.9 -0.70459Z" fill="url(#paint3_linear_2001_23)"/>
</g>
<mask id="mask4_2001_23" style="mask-type:luminance" maskUnits="userSpaceOnUse" x="91" y="0" width="13" height="27">
<path d="M94.2059 17.615C94.7696 19.0947 96.3902 23.0405 97.588 25.5771C97.729 25.9294 97.8699 26.2112 98.0108 26.4931C97.0948 24.4497 96.2493 21.5608 96.0379 19.447C95.8265 17.4036 96.2493 15.2194 97.4471 13.5283C98.7859 11.6259 100.9 11.0622 103.084 11.9782L91.1761 0.0703125C91.1761 1.3386 91.317 9.86435 94.2059 17.615Z" fill="white"/>
</mask>
<g mask="url(#mask4_2001_23)">
<path d="M97.6585 32.412L78.0705 14.515L96.6016 -5.84814L116.26 12.0489L97.6585 32.412Z" fill="url(#paint4_linear_2001_23)"/>
</g>
<path d="M166.64 51.0139C167.696 51.0139 168.542 51.8594 168.542 52.9163C168.542 53.9732 167.696 54.8188 166.64 54.8188C165.583 54.8188 164.737 53.9732 164.737 52.9163C164.667 51.8594 165.512 51.0139 166.64 51.0139ZM166.64 50.4502C165.301 50.4502 164.173 51.5776 164.173 52.9163C164.173 54.2551 165.301 55.3824 166.64 55.3824C167.978 55.3824 169.106 54.2551 169.106 52.9163C169.106 51.5776 167.978 50.4502 166.64 50.4502Z" fill="white"/>
<path d="M165.653 54.0438V52.0004C165.653 51.93 165.653 51.8595 165.724 51.8595C165.794 51.7891 165.794 51.7891 165.865 51.7891H166.71C166.921 51.7891 167.133 51.8595 167.274 51.93C167.415 52.0709 167.485 52.2118 167.485 52.4232C167.485 52.5641 167.485 52.705 167.415 52.7755C167.344 52.846 167.274 52.9164 167.133 52.9869C167.203 53.0574 167.274 53.0574 167.344 53.1278C167.415 53.1983 167.415 53.3392 167.415 53.4801V53.762V53.8324V53.9029C167.415 53.9733 167.485 54.0438 167.485 54.0438H166.992C166.992 53.9733 166.921 53.9733 166.921 53.9029C166.921 53.8324 166.921 53.762 166.921 53.762V53.5506C166.921 53.4097 166.921 53.3392 166.851 53.2687C166.781 53.1983 166.71 53.1983 166.569 53.1983H166.076V54.0438H165.653ZM166.146 52.7755H166.71C166.851 52.7755 166.921 52.7755 166.992 52.705C167.062 52.6346 167.062 52.5641 167.062 52.4937C167.062 52.4232 167.062 52.3527 166.992 52.2823C166.921 52.2118 166.851 52.2118 166.781 52.2118H166.217V52.7755H166.146Z" fill="white"/>
<path d="M0 71.5884H0.845528V77.9298H0V71.5884Z" fill="white"/>
<path d="M2.46611 71.5884H3.7344L9.51218 77.1548V71.5884H10.3577V77.9298H9.08942L3.31164 72.3634V77.9298H2.46611V71.5884Z" fill="white"/>
<path d="M11.9079 71.5884H17.0515C19.1653 71.5884 19.729 72.2225 19.729 74.7591C19.729 77.0843 19.1653 77.9298 16.981 77.9298H11.9079V71.5884ZM18.8835 74.4068C18.8835 72.5748 18.3198 72.2225 17.2629 72.2225H12.7534V77.1548H17.1219C18.1789 77.1548 18.8835 76.9434 18.8835 75.041V74.4068Z" fill="white"/>
<path d="M21.2087 71.5884H22.0542V76.3092C22.0542 76.9434 22.2656 77.2957 23.393 77.2957H26.4228C27.6206 77.2957 27.7615 76.9434 27.7615 76.3092V71.5884H28.6071V76.3092C28.6071 77.5775 27.9729 78.0003 26.3523 78.0003H23.4634C21.8428 78.0003 21.2087 77.648 21.2087 76.3092V71.5884Z" fill="white"/>
<path d="M30.1572 75.8863H30.9322V76.3091C30.9322 76.9432 31.2845 77.225 32.3414 77.225H35.019C36.2872 77.225 36.6396 76.9432 36.6396 76.0272C36.6396 75.2521 36.3577 75.0408 35.2303 75.0408H33.6097C31.0027 75.0408 30.1572 74.8998 30.1572 73.2088C30.1572 71.7996 31.0027 71.4473 32.7642 71.4473H34.5962C36.71 71.4473 37.2737 72.011 37.2737 73.1383V73.3497H36.4986C36.4986 72.3633 36.3577 72.1519 34.103 72.1519H33.187C31.5664 72.1519 30.9322 72.2223 30.9322 73.2792C30.9322 74.0543 31.1436 74.2657 32.4824 74.2657H35.019C36.71 74.2657 37.4146 74.7589 37.4146 75.8158V76.2386C37.4146 77.7887 36.1463 77.9297 34.878 77.9297H32.4824C31.2141 77.9297 30.1572 77.7183 30.1572 76.3091V75.8863Z" fill="white"/>
<path d="M41.3605 72.293H38.1897V71.5884H45.4472V72.293H42.2764V77.9298H41.4309V72.293H41.3605Z" fill="white"/>
<path d="M46.2927 71.5884H51.3659C53.1979 71.5884 53.4797 72.2225 53.4797 73.3499V73.8431C53.4797 74.7591 52.9865 74.9705 52.2819 75.041C53.1274 75.1819 53.3388 75.6751 53.3388 76.2388V77.8594H52.5637V76.4502C52.5637 75.4637 52.0705 75.3228 51.2954 75.3228H47.1383V77.7889H46.2927V71.5884ZM51.2954 74.6887C52.2819 74.6887 52.6342 74.4068 52.6342 73.7727V73.209C52.6342 72.5044 52.3523 72.293 51.0841 72.293H47.2087V74.6887H51.2954Z" fill="white"/>
<path d="M54.9593 71.5884H55.8048V77.9298H54.9593V71.5884Z" fill="white"/>
<path d="M60.5258 71.5884H61.5827L65.3171 77.9298H64.3306L63.5556 76.5911H58.4824L57.7073 77.9298H56.7209L60.5258 71.5884ZM61.0894 72.293L58.9756 75.8865H63.2033L61.0894 72.293Z" fill="white"/>
<path d="M66.3035 71.5884H67.149V77.2252H72.0813V77.9298H66.3035V71.5884Z" fill="white"/>
<path d="M77.084 71.5884H82.2981C83.4255 71.5884 84.1301 71.7998 84.1301 73.2794C84.1301 74.6887 83.9892 75.3933 82.1572 75.3933H78V77.8594H77.1545V71.5884H77.084ZM83.2846 73.209C83.2846 72.4339 82.8618 72.293 82.1572 72.293H78V74.7591H82.2277C82.9323 74.7591 83.2846 74.5477 83.2846 73.8431V73.209Z" fill="white"/>
<path d="M88.2873 71.5884H89.3442L93.0786 77.9298H92.0921L91.3171 76.5911H86.3144L85.5393 77.9298H84.5529L88.2873 71.5884ZM88.851 72.293L86.7371 75.8865H90.9648L88.851 72.293Z" fill="white"/>
<path d="M93.9946 71.5884H99.0678C100.9 71.5884 101.182 72.2225 101.182 73.3499V73.8431C101.182 74.7591 100.688 74.9705 99.9838 75.041C100.829 75.1819 101.041 75.6751 101.041 76.2388V77.8594H100.266V76.4502C100.266 75.4637 99.7724 75.3228 98.9973 75.3228H94.8402V77.7889H93.9946V71.5884ZM98.9973 74.6887C99.9838 74.6887 100.336 74.4068 100.336 73.7727V73.209C100.336 72.5044 100.054 72.293 98.786 72.293H94.9106V74.6887H98.9973Z" fill="white"/>
<path d="M102.661 71.5884H103.507V74.2659H104.564L108.509 71.5884H109.919L105.409 74.6182L110.341 77.8594H108.862L104.493 74.9H103.507V77.8594H102.661V71.5884Z" fill="white"/>
<path d="M114.71 71.5884H115.696L118.797 77.1548L121.897 71.5884H122.883L119.36 77.9298H118.304L114.71 71.5884Z" fill="white"/>
<path d="M123.799 71.5884H124.645V77.9298H123.799V71.5884Z" fill="white"/>
<path d="M126.266 71.5884H127.534L133.312 77.1548V71.5884H134.157V77.9298H132.889L127.111 72.3634V77.9298H126.266V71.5884Z" fill="white"/>
<path d="M135.778 71.5884H136.623V74.3363H142.331V71.5884H143.176V77.9298H142.331V75.041H136.623V77.9298H135.778V71.5884Z" fill="white"/>
<path d="M148.954 71.5884H154.168C155.295 71.5884 156 71.7998 156 73.2794C156 74.6887 155.859 75.3933 154.027 75.3933H149.87V77.8594H149.024V71.5884H148.954ZM155.155 73.209C155.155 72.4339 154.732 72.293 154.027 72.293H149.87V74.7591H154.098C154.802 74.7591 155.155 74.5477 155.155 73.8431V73.209Z" fill="white"/>
<path d="M157.127 71.5884H157.973V74.3363H163.68V71.5884H164.526V77.9298H163.68V75.041H157.973V77.9298H157.127V71.5884Z" fill="white"/>
<path d="M166.217 71.5884H167.062V76.3092C167.062 76.9434 167.274 77.2957 168.401 77.2957H171.36C172.488 77.2957 172.699 76.9434 172.699 76.3092V71.5884H173.545V76.3092C173.545 77.5775 172.911 78.0003 171.29 78.0003H168.401C166.781 78.0003 166.146 77.648 166.146 76.3092V71.5884H166.217Z" fill="white"/>
<path d="M175.095 73.8429C175.095 72.2223 175.659 71.4473 177.35 71.4473H180.661C182.211 71.4473 182.634 72.1519 182.634 72.9974V73.5611H181.859V73.2792C181.859 72.2223 181.225 72.1519 180.379 72.1519H177.42C176.575 72.1519 175.94 72.3633 175.94 73.4906V75.8863C175.94 77.0137 176.575 77.225 177.42 77.225H180.45C181.577 77.225 181.93 77.0137 181.93 76.0977V75.6749H182.705V76.0977C182.705 77.225 182.352 77.8592 180.591 77.8592H177.35C175.659 77.8592 175.095 77.0841 175.095 75.4635V73.8429Z" fill="white"/>
<defs>
<linearGradient id="paint0_linear_2001_23" x1="70.0371" y1="14.5733" x2="88.5535" y2="37.2508" gradientUnits="userSpaceOnUse">
<stop stop-color="#50B8B1"/>
<stop offset="1" stop-color="#1D615A"/>
</linearGradient>
<linearGradient id="paint1_linear_2001_23" x1="83.8331" y1="48.3965" x2="86.0032" y2="21.581" gradientUnits="userSpaceOnUse">
<stop stop-color="#1D6059"/>
<stop offset="1" stop-color="#50B8B1"/>
</linearGradient>
<linearGradient id="paint2_linear_2001_23" x1="112.328" y1="29.6463" x2="93.8115" y2="6.96886" gradientUnits="userSpaceOnUse">
<stop stop-color="#50B8B1"/>
<stop offset="1" stop-color="#1D615A"/>
</linearGradient>
<linearGradient id="paint3_linear_2001_23" x1="90.6327" y1="8.17123" x2="91.5421" y2="30.6023" gradientUnits="userSpaceOnUse">
<stop stop-color="#50B8B1"/>
<stop offset="1" stop-color="#1D615A"/>
</linearGradient>
<linearGradient id="paint4_linear_2001_23" x1="101.581" y1="17.2663" x2="89.5488" y2="6.31252" gradientUnits="userSpaceOnUse">
<stop stop-color="#50B8B1"/>
<stop offset="1" stop-color="#1D615A"/>
</linearGradient>
</defs>
</svg>
