<svg width="211" height="90" viewBox="0 0 211 90" fill="none" xmlns="http://www.w3.org/2000/svg">
<path d="M183.089 58.2114V70.6504L164.797 58.2927C164.472 58.0488 164.065 57.8862 163.659 57.8862C163.089 57.8862 162.602 58.374 162.602 58.9431V75.3658H165.772V62.8455L183.984 75.2032C184.309 75.4471 184.716 75.6097 185.122 75.6097C185.691 75.6097 186.179 75.1219 186.179 74.5528V58.2114H183.089Z" fill="#024B40"/>
<path d="M126.423 58.2114H123.252V75.3659H126.423V58.2114Z" fill="#024B40"/>
<path d="M69.5935 58.2114V61.3008H59.3496V75.3659H56.0163V61.3008H46.0163V58.2114H69.5935Z" fill="#024B40"/>
<path d="M123.252 58.2114L106.097 75.2846C105.61 75.7724 104.797 75.7724 104.309 75.2846L87.1544 58.2114H91.7885L105.122 71.5447L118.455 58.2114H123.252Z" fill="#024B40"/>
<path d="M80.8132 58.2927C80.3254 57.8049 79.4311 57.8049 78.9433 58.2927L61.9514 75.3659H66.6668L69.9189 72.1139H89.8376L93.0896 75.3659H97.805L80.8132 58.2927ZM73.0896 68.9431L79.9189 62.0326L86.7481 68.9431H73.0896Z" fill="#024B40"/>
<path d="M145.366 58.2927C144.878 57.8049 143.984 57.8049 143.496 58.2927L126.504 75.3659H131.22L134.472 72.1139H154.39L157.642 75.3659H162.358L145.366 58.2927ZM137.561 68.9431L144.39 62.0326L151.22 68.9431H137.561Z" fill="#024B40"/>
<path d="M44.7155 66.8293C43.8212 65.935 42.6017 65.2846 41.2196 65.2846H29.5936C29.0245 65.2846 27.3984 64.8781 27.3984 63.4147C27.3984 62.2765 28.2928 61.3009 29.431 61.3009H45.122V58.1301H28.8619C27.4797 58.1301 26.2602 58.6992 25.3659 59.6749C24.4716 60.5692 23.9025 61.87 23.9025 63.2521C23.9025 65.6098 25.2846 66.748 25.2846 66.748C26.1789 67.6423 27.3984 68.2927 28.7806 68.2927H40.6505C41.2196 68.2927 41.7074 68.5366 42.0326 68.8618C42.3578 69.187 42.6017 69.6749 42.6017 70.1627C42.683 71.3009 41.7074 72.1952 40.5692 72.1952H24.309V75.2846H41.1383C42.5204 75.2846 43.7399 74.7155 44.6342 73.8212C45.5285 72.9269 46.0976 71.6261 46.0976 70.244C46.0976 67.9675 44.8781 66.9106 44.7155 66.8293Z" fill="#024B40"/>
<mask id="mask0_2001_1748" style="mask-type:luminance" maskUnits="userSpaceOnUse" x="79" y="12" width="15" height="24">
<path d="M79.7562 25.5284L89.6749 35.4471C88.3741 33.3333 87.3172 30.7317 87.6424 27.0732C88.2115 21.8699 90.8944 17.8049 93.1708 12.1951L79.7562 25.5284Z" fill="white"/>
</mask>
<g mask="url(#mask0_2001_1748)">
<path d="M87.8049 5.52847L104.553 26.0976L85.122 41.9512L68.374 21.3821L87.8049 5.52847Z" fill="url(#paint0_linear_2001_1748)"/>
</g>
<mask id="mask1_2001_1748" style="mask-type:luminance" maskUnits="userSpaceOnUse" x="91" y="20" width="15" height="31">
<path d="M99.5936 28.618C99.8375 30.9757 99.3496 33.496 97.9675 35.4472C96.4228 37.6424 93.9838 38.2928 91.4635 37.1546L105.203 50.8944C105.203 49.431 105.041 39.6749 101.707 30.7318C101.057 29.0245 99.1871 24.4716 97.8049 21.5448C97.8049 21.5448 97.3984 20.6505 97.3171 20.4879C98.374 22.8456 99.3496 26.0976 99.5936 28.618Z" fill="white"/>
</mask>
<g mask="url(#mask1_2001_1748)">
<path d="M89.0245 50.7318L91.5448 19.3496L107.642 20.6505L105.122 52.0326L89.0245 50.7318Z" fill="url(#paint1_linear_2001_1748)"/>
</g>
<mask id="mask2_2001_1748" style="mask-type:luminance" maskUnits="userSpaceOnUse" x="117" y="15" width="14" height="24">
<path d="M122.764 24.0651C122.195 29.2683 119.512 33.3333 117.236 38.9431L130.651 25.5285L120.732 15.6098C122.114 17.8049 123.171 20.3252 122.764 24.0651Z" fill="white"/>
</mask>
<g mask="url(#mask2_2001_1748)">
<path d="M122.602 45.5284L105.854 24.9593L125.285 9.10565L142.033 29.5935L122.602 45.5284Z" fill="url(#paint2_linear_2001_1748)"/>
</g>
<mask id="mask3_2001_1748" style="mask-type:luminance" maskUnits="userSpaceOnUse" x="93" y="0" width="24" height="51">
<path d="M93.9024 11.3008C94.3089 13.252 95.6098 16.5041 97.8049 21.5447C99.2683 24.4715 101.138 29.0244 101.707 30.7317C104.959 39.6748 105.122 49.4309 105.203 50.8943L116.504 39.6748C116.179 37.7236 114.797 34.4715 112.602 29.4309C111.138 26.5041 109.268 21.9512 108.699 20.2439C105.447 11.3008 105.285 1.54472 105.203 3.8147e-06L93.9024 11.3008Z" fill="white"/>
</mask>
<g mask="url(#mask3_2001_1748)">
<path d="M116.423 -0.812981L118.537 50.813L93.9838 51.8699L91.87 0.162629L116.423 -0.812981Z" fill="url(#paint3_linear_2001_1748)"/>
</g>
<mask id="mask4_2001_1748" style="mask-type:luminance" maskUnits="userSpaceOnUse" x="105" y="0" width="14" height="31">
<path d="M108.699 20.3253C109.35 22.0326 111.219 26.5854 112.602 29.5122C112.764 29.9187 112.927 30.244 113.089 30.5692C112.032 28.2114 111.057 24.8781 110.813 22.4391C110.569 20.0814 111.057 17.561 112.439 15.6098C113.984 13.4147 116.423 12.7643 118.943 13.8212L105.203 0.0813599C105.203 1.54477 105.366 11.3822 108.699 20.3253Z" fill="white"/>
</mask>
<g mask="url(#mask4_2001_1748)">
<path d="M112.683 37.3985L90.0812 16.7481L111.463 -6.74787L134.146 13.9025L112.683 37.3985Z" fill="url(#paint4_linear_2001_1748)"/>
</g>
<path d="M192.276 58.8617C193.496 58.8617 194.471 59.8373 194.471 61.0569C194.471 62.2764 193.496 63.252 192.276 63.252C191.057 63.252 190.081 62.2764 190.081 61.0569C190 59.8373 190.976 58.8617 192.276 58.8617ZM192.276 58.2113C190.732 58.2113 189.431 59.5121 189.431 61.0569C189.431 62.6016 190.732 63.9024 192.276 63.9024C193.821 63.9024 195.122 62.6016 195.122 61.0569C195.122 59.5121 193.821 58.2113 192.276 58.2113Z" fill="#024B40"/>
<path d="M191.138 62.3577V59.9999C191.138 59.9186 191.138 59.8373 191.219 59.8373C191.301 59.756 191.301 59.756 191.382 59.756H192.358C192.602 59.756 192.845 59.8373 193.008 59.9186C193.171 60.0812 193.252 60.2438 193.252 60.4877C193.252 60.6503 193.252 60.8129 193.171 60.8942C193.089 60.9755 193.008 61.0568 192.845 61.1381C192.927 61.2194 193.008 61.2194 193.089 61.3007C193.171 61.382 193.171 61.5446 193.171 61.7072V62.0324V62.1137V62.1951C193.171 62.2764 193.252 62.3577 193.252 62.3577H192.683C192.683 62.2763 192.601 62.2764 192.601 62.1951C192.601 62.1138 192.601 62.0324 192.601 62.0324V61.7885C192.601 61.6259 192.602 61.5446 192.52 61.4633C192.439 61.382 192.358 61.382 192.195 61.382H191.626V62.3577H191.138ZM191.707 60.8942H192.358C192.52 60.8942 192.602 60.8942 192.683 60.8129C192.764 60.7316 192.764 60.6503 192.764 60.569C192.764 60.4877 192.764 60.4064 192.683 60.3251C192.602 60.2438 192.52 60.2438 192.439 60.2438H191.788V60.8942H191.707Z" fill="#024B40"/>
<path d="M4.57764e-05 82.6017H0.975655V89.9188H4.57764e-05V82.6017Z" fill="#024B40"/>
<path d="M2.8455 82.6017H4.30892L10.9756 89.0244V82.6017H11.9512V89.9188H10.4878L3.82111 83.496V89.9188H2.8455V82.6017Z" fill="#024B40"/>
<path d="M13.74 82.6017H19.6749C22.1139 82.6017 22.7643 83.3334 22.7643 86.2602C22.7643 88.9431 22.1139 89.9188 19.5936 89.9188H13.74V82.6017ZM21.7887 85.8537C21.7887 83.7399 21.1383 83.3334 19.9188 83.3334H14.7156V89.0244H19.7562C20.9757 89.0244 21.7887 88.7805 21.7887 86.5854V85.8537Z" fill="#024B40"/>
<path d="M24.4715 82.6017H25.4471V88.0488C25.4471 88.7805 25.691 89.187 26.9919 89.187H30.4878C31.8699 89.187 32.0325 88.7805 32.0325 88.0488V82.6017H33.0081V88.0488C33.0081 89.5122 32.2764 90.0001 30.4065 90.0001H27.0732C25.2032 90.0001 24.4715 89.5935 24.4715 88.0488V82.6017Z" fill="#024B40"/>
<path d="M34.7968 87.5611H35.6911V88.0489C35.6911 88.7806 36.0976 89.1058 37.3171 89.1058H40.4065C41.87 89.1058 42.2765 88.7806 42.2765 87.7237C42.2765 86.8294 41.9513 86.5855 40.6504 86.5855H38.7805C35.7724 86.5855 34.7968 86.4229 34.7968 84.4717C34.7968 82.8457 35.7724 82.4392 37.8049 82.4392H39.9187C42.3578 82.4392 43.0082 83.0896 43.0082 84.3904V84.6343H42.1139C42.1139 83.4961 41.9513 83.2522 39.3496 83.2522H38.2927C36.4228 83.2522 35.6911 83.3335 35.6911 84.553C35.6911 85.4473 35.935 85.6912 37.4797 85.6912H40.4065C42.3578 85.6912 43.1708 86.2603 43.1708 87.4798V87.9676C43.1708 89.7562 41.7074 89.9188 40.2439 89.9188H37.4797C36.0163 89.9188 34.7968 89.6749 34.7968 88.0489V87.5611Z" fill="#024B40"/>
<path d="M47.7236 83.4147H44.0651V82.6017H52.439V83.4147H48.7805V89.9188H47.8049V83.4147H47.7236Z" fill="#024B40"/>
<path d="M53.4146 82.6017H59.2683C61.3821 82.6017 61.7073 83.3334 61.7073 84.6342V85.2033C61.7073 86.2602 61.1382 86.5041 60.3252 86.5854C61.3008 86.748 61.5447 87.3171 61.5447 87.9675V89.8375H60.6504V88.2114C60.6504 87.0732 60.0813 86.9106 59.187 86.9106H54.3902V89.7562H53.4146V82.6017ZM59.187 86.1789C60.3252 86.1789 60.7317 85.8537 60.7317 85.122V84.4716C60.7317 83.6586 60.4065 83.4147 58.9431 83.4147H54.4715V86.1789H59.187Z" fill="#024B40"/>
<path d="M63.4146 82.6017H64.3902V89.9188H63.4146V82.6017Z" fill="#024B40"/>
<path d="M69.8374 82.6017H71.0569L75.3658 89.9188H74.2276L73.3333 88.374H67.4796L66.5853 89.9188H65.4471L69.8374 82.6017ZM70.4878 83.4147L68.0487 87.561H72.9268L70.4878 83.4147Z" fill="#024B40"/>
<path d="M76.5041 82.6017H77.4797V89.1057H83.1708V89.9188H76.5041V82.6017Z" fill="#024B40"/>
<path d="M88.9431 82.6017H94.9593C96.2602 82.6017 97.0732 82.8456 97.0732 84.5529C97.0732 86.1789 96.9106 86.9919 94.7967 86.9919H90V89.8375H89.0244V82.6017H88.9431ZM96.0976 84.4716C96.0976 83.5773 95.6097 83.4147 94.7967 83.4147H90V86.2602H94.878C95.691 86.2602 96.0976 86.0163 96.0976 85.2033V84.4716Z" fill="#024B40"/>
<path d="M101.87 82.6017H103.09L107.398 89.9188H106.26L105.366 88.374H99.5936L98.6993 89.9188H97.5611L101.87 82.6017ZM102.52 83.4147L100.081 87.561H104.959L102.52 83.4147Z" fill="#024B40"/>
<path d="M108.455 82.6017H114.309C116.423 82.6017 116.748 83.3334 116.748 84.6342V85.2033C116.748 86.2602 116.179 86.5041 115.366 86.5854C116.342 86.748 116.585 87.3171 116.585 87.9675V89.8375H115.691V88.2114C115.691 87.0732 115.122 86.9106 114.228 86.9106H109.431V89.7562H108.455V82.6017ZM114.228 86.1789C115.366 86.1789 115.772 85.8537 115.772 85.122V84.4716C115.772 83.6586 115.447 83.4147 113.984 83.4147H109.512V86.1789H114.228Z" fill="#024B40"/>
<path d="M118.455 82.6017H119.431V85.6911H120.651L125.203 82.6017H126.829L121.626 86.0976L127.317 89.8375H125.61L120.569 86.4228H119.431V89.8375H118.455V82.6017Z" fill="#024B40"/>
<path d="M132.358 82.6017H133.496L137.073 89.0244L140.65 82.6017H141.789L137.724 89.9188H136.504L132.358 82.6017Z" fill="#024B40"/>
<path d="M142.846 82.6017H143.821V89.9188H142.846V82.6017Z" fill="#024B40"/>
<path d="M145.691 82.6017H147.154L153.821 89.0244V82.6017H154.797V89.9188H153.333L146.667 83.496V89.9188H145.691V82.6017Z" fill="#024B40"/>
<path d="M156.667 82.6017H157.642V85.7724H164.228V82.6017H165.203V89.9188H164.228V86.5854H157.642V89.9188H156.667V82.6017Z" fill="#024B40"/>
<path d="M171.87 82.6017H177.886C179.187 82.6017 180 82.8456 180 84.5529C180 86.1789 179.838 86.9919 177.724 86.9919H172.927V89.8375H171.951V82.6017H171.87ZM179.025 84.4716C179.025 83.5773 178.537 83.4147 177.724 83.4147H172.927V86.2602H177.805C178.618 86.2602 179.025 86.0163 179.025 85.2033V84.4716Z" fill="#024B40"/>
<path d="M181.301 82.6017H182.277V85.7724H188.862V82.6017H189.838V89.9188H188.862V86.5854H182.277V89.9188H181.301V82.6017Z" fill="#024B40"/>
<path d="M191.789 82.6017H192.764V88.0488C192.764 88.7805 193.008 89.187 194.309 89.187H197.724C199.025 89.187 199.268 88.7805 199.268 88.0488V82.6017H200.244V88.0488C200.244 89.5122 199.512 90.0001 197.642 90.0001H194.309C192.439 90.0001 191.707 89.5935 191.707 88.0488V82.6017H191.789Z" fill="#024B40"/>
<path d="M202.033 85.2034C202.033 83.3335 202.683 82.4392 204.634 82.4392H208.455C210.244 82.4392 210.732 83.2522 210.732 84.2278V84.8782H209.837V84.553C209.837 83.3335 209.106 83.2522 208.13 83.2522H204.715C203.74 83.2522 203.008 83.4961 203.008 84.7969V87.5611C203.008 88.8619 203.74 89.1058 204.715 89.1058H208.211C209.512 89.1058 209.919 88.8619 209.919 87.805V87.3172H210.813V87.805C210.813 89.1058 210.407 89.8375 208.374 89.8375H204.634C202.683 89.8375 202.033 88.9432 202.033 87.0733V85.2034Z" fill="#024B40"/>
<defs>
<linearGradient id="paint0_linear_2001_1748" x1="80.812" y1="16.8157" x2="102.177" y2="42.982" gradientUnits="userSpaceOnUse">
<stop stop-color="#50B8B1"/>
<stop offset="1" stop-color="#1D615A"/>
</linearGradient>
<linearGradient id="paint1_linear_2001_1748" x1="96.7306" y1="55.8423" x2="99.2345" y2="24.9013" gradientUnits="userSpaceOnUse">
<stop stop-color="#1D6059"/>
<stop offset="1" stop-color="#50B8B1"/>
</linearGradient>
<linearGradient id="paint2_linear_2001_1748" x1="129.609" y1="34.2072" x2="108.244" y2="8.04095" gradientUnits="userSpaceOnUse">
<stop stop-color="#50B8B1"/>
<stop offset="1" stop-color="#1D615A"/>
</linearGradient>
<linearGradient id="paint3_linear_2001_1748" x1="104.576" y1="9.42835" x2="105.626" y2="35.3104" gradientUnits="userSpaceOnUse">
<stop stop-color="#50B8B1"/>
<stop offset="1" stop-color="#1D615A"/>
</linearGradient>
<linearGradient id="paint4_linear_2001_1748" x1="117.209" y1="19.9226" x2="103.326" y2="7.28366" gradientUnits="userSpaceOnUse">
<stop stop-color="#50B8B1"/>
<stop offset="1" stop-color="#1D615A"/>
</linearGradient>
</defs>
</svg>
