<svg width="19" height="26" viewBox="0 0 19 26" fill="none" xmlns="http://www.w3.org/2000/svg">
<path d="M8.4554 24.5831C7.67523 23.4453 6.78129 22.1613 5.77358 20.731C4.79837 19.3007 4.09947 18.293 3.67688 17.7079C3.25429 17.1227 2.76669 16.4076 2.21407 15.5624C1.66145 14.6847 1.28762 14.0671 1.09258 13.7095C0.930045 13.3519 0.735004 12.8968 0.507455 12.3442C0.312414 11.7916 0.182386 11.3202 0.117372 10.9302C0.0848652 10.5076 0.0686117 10.02 0.0686117 9.46735C0.0686117 6.86679 0.978806 4.65632 2.79919 2.83593C4.61958 1.01555 6.83005 0.105352 9.43061 0.105352C12.0312 0.105352 14.2416 1.01555 16.062 2.83593C17.8824 4.65632 18.7926 6.86679 18.7926 9.46735C18.7926 10.02 18.7601 10.5076 18.6951 10.9302C18.6626 11.3202 18.5326 11.7916 18.305 12.3442C18.11 12.8968 17.9149 13.3519 17.7199 13.7095C17.5573 14.0671 17.1998 14.6847 16.6471 15.5624C16.0945 16.4076 15.6069 17.1227 15.1843 17.7079C14.7617 18.293 14.0466 19.3007 13.0389 20.731C12.0637 22.1613 11.186 23.4453 10.4058 24.5831C10.1783 24.9081 9.8532 25.0707 9.43061 25.0707C9.00802 25.0707 8.68295 24.9081 8.4554 24.5831ZM6.65127 12.2467C7.43143 12.9944 8.35788 13.3682 9.43061 13.3682C10.5033 13.3682 11.4135 12.9944 12.1612 12.2467C12.9414 11.4665 13.3314 10.5401 13.3314 9.46735C13.3314 8.39462 12.9414 7.48443 12.1612 6.73677C11.4135 5.9566 10.5033 5.56652 9.43061 5.56652C8.35788 5.56652 7.43143 5.9566 6.65127 6.73677C5.90361 7.48443 5.52978 8.39462 5.52978 9.46735C5.52978 10.5401 5.90361 11.4665 6.65127 12.2467Z" fill="white"/>
</svg>
