<svg width="26" height="20" viewBox="0 0 26 20" fill="none" xmlns="http://www.w3.org/2000/svg">
<path d="M24.5502 6.8957C24.6478 6.79818 24.7453 6.78193 24.8428 6.84694C24.9728 6.91195 25.0378 7.00947 25.0378 7.1395V17.0866C25.0378 17.7368 24.8103 18.2894 24.3552 18.7445C23.9001 19.1996 23.3475 19.4271 22.6973 19.4271H2.41302C1.76288 19.4271 1.21026 19.1996 0.755164 18.7445C0.300066 18.2894 0.0725179 17.7368 0.0725179 17.0866V7.1395C0.0725179 7.00947 0.121278 6.92821 0.218799 6.8957C0.348827 6.83069 0.462601 6.83069 0.560122 6.8957C1.63285 7.70837 4.13588 9.54502 8.06922 12.4056C8.13424 12.4706 8.34553 12.6494 8.70311 12.942C9.09319 13.2346 9.40201 13.4621 9.62956 13.6246C9.85711 13.7547 10.1497 13.9335 10.5072 14.161C10.8648 14.356 11.2061 14.5023 11.5312 14.5998C11.8888 14.6974 12.2301 14.7461 12.5552 14.7461C12.8477 14.7461 13.1403 14.7136 13.4329 14.6486C13.7254 14.5511 14.0017 14.4536 14.2618 14.356C14.5219 14.226 14.7982 14.0635 15.0907 13.8684C15.3833 13.6734 15.6271 13.5109 15.8221 13.3808C16.0172 13.2183 16.2447 13.0395 16.5048 12.8445C16.7648 12.6494 16.9436 12.5031 17.0411 12.4056C20.877 9.64254 23.38 7.80589 24.5502 6.8957ZM12.5552 13.1858C12.2951 13.1858 11.9701 13.1045 11.58 12.942C11.2224 12.7469 10.9298 12.5844 10.7023 12.4544C10.4747 12.2919 10.1334 12.048 9.67832 11.723C9.25573 11.3654 9.02818 11.1866 8.99567 11.1866C5.02983 8.2935 2.20172 6.1968 0.511362 4.89652C0.218799 4.66898 0.0725179 4.36016 0.0725179 3.97008V3.04363C0.0725179 2.39349 0.300066 1.84087 0.755164 1.38577C1.21026 0.930678 1.76288 0.703129 2.41302 0.703129H22.6973C23.3475 0.703129 23.9001 0.930678 24.3552 1.38577C24.8103 1.84087 25.0378 2.39349 25.0378 3.04363V3.97008C25.0378 4.36016 24.8916 4.66898 24.599 4.89652C23.0062 6.13179 20.1781 8.22848 16.1147 11.1866C16.0822 11.1866 15.8384 11.3654 15.3833 11.723C14.9607 12.048 14.6356 12.2919 14.4081 12.4544C14.1805 12.5844 13.8717 12.7469 13.4816 12.942C13.1241 13.1045 12.8152 13.1858 12.5552 13.1858Z" fill="white"/>
</svg>
