<svg width="26" height="25" viewBox="0 0 26 25" fill="none" xmlns="http://www.w3.org/2000/svg">
<path d="M24.1736 23.6801C24.059 24.276 23.7048 24.5791 23.1112 24.5894C17.1121 24.6941 11.9508 22.6589 7.62723 18.4837C3.3037 14.3085 1.08958 9.2214 0.984868 3.22232C0.974506 2.62866 1.26506 2.26415 1.85654 2.12881L6.71117 0.918901C7.3021 0.752312 7.72773 0.963666 7.98805 1.55296L10.3293 6.7629C10.5568 7.259 10.4551 7.69835 10.0242 8.08092L7.25218 10.4265C8.12798 12.2553 9.29679 13.8601 10.7586 15.2411C12.221 16.6533 13.8656 17.7654 15.6926 18.5773L17.9869 15.7244C18.323 15.2809 18.7585 15.1639 19.2935 15.3734L24.5819 17.5314C25.1487 17.7716 25.3592 18.1898 25.2133 18.7862L24.1736 23.6801Z" fill="white"/>
</svg>
