<svg width="56" height="56" viewBox="0 0 56 56" fill="none" xmlns="http://www.w3.org/2000/svg">
<g clip-path="url(#clip0_319_2229)">
<path d="M41.3669 18.1437L41.6717 15.5657L29.2374 28L41.6718 40.4344L41.3671 37.8563C41.3398 37.6259 41.4052 37.394 41.5489 37.2118C41.6926 37.0296 41.9029 36.9119 42.1333 36.8846C42.3638 36.8574 42.5956 36.9228 42.7779 37.0665C42.9601 37.2102 43.0778 37.4205 43.105 37.6509L43.7059 42.7341C43.7214 42.8655 43.707 42.9986 43.6637 43.1236C43.6203 43.2485 43.5492 43.362 43.4557 43.4555C43.3622 43.5491 43.2487 43.6202 43.1238 43.6635C42.9988 43.7069 42.8657 43.7213 42.7343 43.7058L37.651 43.105C37.5369 43.0915 37.4266 43.0557 37.3263 42.9996C37.226 42.9434 37.1378 42.8681 37.0666 42.7779C36.9955 42.6877 36.9428 42.5843 36.9116 42.4737C36.8804 42.3631 36.8713 42.2474 36.8848 42.1333C36.8982 42.0192 36.934 41.9088 36.9901 41.8085C37.0462 41.7082 37.1215 41.62 37.2118 41.5488C37.302 41.4776 37.4054 41.4249 37.516 41.3938C37.6266 41.3626 37.7423 41.3535 37.8564 41.3671L40.4344 41.6718L28 29.2374L15.5656 41.6718L18.1437 41.3671C18.3741 41.3398 18.606 41.4052 18.7882 41.5489C18.9704 41.6926 19.0881 41.9029 19.1154 42.1333C19.1426 42.3638 19.0772 42.5956 18.9335 42.7779C18.7898 42.9601 18.5795 43.0778 18.3491 43.105L13.2659 43.7059C13.1345 43.7214 13.0014 43.7069 12.8765 43.6636C12.7516 43.6202 12.6381 43.5492 12.5445 43.4557C12.451 43.3622 12.3799 43.2486 12.3366 43.1237C12.2932 42.9987 12.2788 42.8656 12.2943 42.7342L12.8951 37.651C12.9085 37.5369 12.9443 37.4265 13.0004 37.3262C13.0565 37.2259 13.1318 37.1376 13.2221 37.0664C13.3123 36.9953 13.4157 36.9426 13.5263 36.9114C13.637 36.8802 13.7526 36.8712 13.8668 36.8848C13.9809 36.8982 14.0912 36.9341 14.1915 36.9902C14.2918 37.0463 14.38 37.1217 14.4512 37.2119C14.5223 37.3021 14.575 37.4055 14.6062 37.5161C14.6374 37.6267 14.6466 37.7423 14.6331 37.8564L14.3283 40.4344L26.7625 28L14.3282 15.5657L14.633 18.1438C14.6475 18.2666 14.6358 18.3911 14.5987 18.5091C14.5616 18.6271 14.4999 18.7359 14.4177 18.8283C14.3355 18.9207 14.2346 18.9946 14.1217 19.0451C14.0089 19.0957 13.8866 19.1218 13.7629 19.1216C13.5488 19.1213 13.3422 19.0426 13.1822 18.9002C13.0223 18.7579 12.9201 18.5618 12.895 18.3492L12.2941 13.266C12.2785 13.1346 12.293 13.0015 12.3363 12.8765C12.3797 12.7516 12.4508 12.6381 12.5443 12.5445C12.6378 12.451 12.7513 12.3799 12.8763 12.3366C13.0013 12.2932 13.1344 12.2788 13.2658 12.2943L18.3491 12.8951C18.5795 12.9223 18.7898 13.04 18.9335 13.2222C19.0772 13.4045 19.1426 13.6363 19.1154 13.8668C19.0881 14.0972 18.9704 14.3075 18.7882 14.4512C18.606 14.5949 18.3741 14.6603 18.1437 14.6331L15.5657 14.3283L28 26.7625L40.4343 14.3282L37.8563 14.633C37.3766 14.6899 36.9414 14.3466 36.8846 13.8667C36.8711 13.7526 36.8803 13.6369 36.9115 13.5263C36.9427 13.4157 36.9954 13.3123 37.0665 13.2221C37.1377 13.1319 37.2259 13.0566 37.3262 13.0004C37.4265 12.9443 37.5368 12.9085 37.6509 12.895L42.7341 12.2941C42.8655 12.2785 42.9986 12.293 43.1236 12.3363C43.2486 12.3797 43.3621 12.4508 43.4556 12.5443C43.5491 12.6378 43.6202 12.7513 43.6636 12.8763C43.7069 13.0013 43.7213 13.1344 43.7058 13.2658L43.105 18.349C43.0777 18.5794 42.96 18.7896 42.7778 18.9333C42.5956 19.077 42.3638 19.1424 42.1333 19.1152C42.0192 19.1018 41.9089 19.066 41.8086 19.0098C41.7083 18.9537 41.6201 18.8784 41.5489 18.7882C41.4777 18.698 41.425 18.5946 41.3938 18.484C41.3626 18.3734 41.3535 18.2578 41.3669 18.1437ZM9.12866 0.875V8.25366C9.12866 8.48572 9.03647 8.70828 8.87237 8.87237C8.70828 9.03647 8.48572 9.12866 8.25366 9.12866H0.875C0.642936 9.12866 0.420376 9.03647 0.256282 8.87237C0.0921872 8.70828 0 8.48572 0 8.25366V0.875C0 0.642936 0.0921872 0.420376 0.256282 0.256282C0.420376 0.0921872 0.642936 0 0.875 0L8.25366 0C8.48572 0 8.70828 0.0921872 8.87237 0.256282C9.03647 0.420376 9.12866 0.642936 9.12866 0.875ZM7.37866 1.75H1.75V7.37866H7.37866V1.75ZM9.12866 47.7463V55.125C9.12866 55.3571 9.03647 55.5796 8.87237 55.7437C8.70828 55.9078 8.48572 56 8.25366 56H0.875C0.642936 56 0.420376 55.9078 0.256282 55.7437C0.0921872 55.5796 0 55.3571 0 55.125V47.7463C0 47.5143 0.0921872 47.2917 0.256282 47.1276C0.420376 46.9635 0.642936 46.8713 0.875 46.8713H8.25366C8.48572 46.8713 8.70828 46.9635 8.87237 47.1276C9.03647 47.2917 9.12866 47.5143 9.12866 47.7463ZM7.37866 48.6213H1.75V54.25H7.37866V48.6213ZM56 0.875V8.25366C56 8.48572 55.9078 8.70828 55.7437 8.87237C55.5796 9.03647 55.3571 9.12866 55.125 9.12866H47.7463C47.5143 9.12866 47.2917 9.03647 47.1276 8.87237C46.9635 8.70828 46.8713 8.48572 46.8713 8.25366V0.875C46.8713 0.642936 46.9635 0.420376 47.1276 0.256282C47.2917 0.0921872 47.5143 0 47.7463 0L55.125 0C55.3571 0 55.5796 0.0921872 55.7437 0.256282C55.9078 0.420376 56 0.642936 56 0.875ZM54.25 1.75H48.6213V7.37866H54.25V1.75ZM56 47.7463V55.125C56 55.3571 55.9078 55.5796 55.7437 55.7437C55.5796 55.9078 55.3571 56 55.125 56H47.7463C47.5143 56 47.2917 55.9078 47.1276 55.7437C46.9635 55.5796 46.8713 55.3571 46.8713 55.125V47.7463C46.8713 47.5143 46.9635 47.2917 47.1276 47.1276C47.2917 46.9635 47.5143 46.8713 47.7463 46.8713H55.125C55.3571 46.8713 55.5796 46.9635 55.7437 47.1276C55.9078 47.2917 56 47.5143 56 47.7463ZM54.25 48.6213H48.6213V54.25H54.25V48.6213ZM11.7613 5.43933H15.4506C15.6827 5.43933 15.9053 5.34714 16.0694 5.18305C16.2335 5.01895 16.3256 4.79639 16.3256 4.56433C16.3256 4.33226 16.2335 4.1097 16.0694 3.94561C15.9053 3.78152 15.6827 3.68933 15.4506 3.68933H11.7613C11.5292 3.68933 11.3067 3.78152 11.1426 3.94561C10.9785 4.1097 10.8863 4.33226 10.8863 4.56433C10.8863 4.79639 10.9785 5.01895 11.1426 5.18305C11.3067 5.34714 11.5292 5.43933 11.7613 5.43933ZM18.9583 5.43933H22.6476C22.8797 5.43933 23.1022 5.34714 23.2663 5.18305C23.4304 5.01895 23.5226 4.79639 23.5226 4.56433C23.5226 4.33226 23.4304 4.1097 23.2663 3.94561C23.1022 3.78152 22.8797 3.68933 22.6476 3.68933H18.9583C18.7262 3.68933 18.5037 3.78152 18.3396 3.94561C18.1755 4.1097 18.0833 4.33226 18.0833 4.56433C18.0833 4.79639 18.1755 5.01895 18.3396 5.18305C18.5037 5.34714 18.7262 5.43933 18.9583 5.43933ZM26.1553 5.43933H29.8446C30.0767 5.43933 30.2992 5.34714 30.4633 5.18305C30.6274 5.01895 30.7196 4.79639 30.7196 4.56433C30.7196 4.33226 30.6274 4.1097 30.4633 3.94561C30.2992 3.78152 30.0767 3.68933 29.8446 3.68933H26.1553C25.9232 3.68933 25.7007 3.78152 25.5366 3.94561C25.3725 4.1097 25.2803 4.33226 25.2803 4.56433C25.2803 4.79639 25.3725 5.01895 25.5366 5.18305C25.7007 5.34714 25.9232 5.43933 26.1553 5.43933ZM33.3524 5.43933H37.0417C37.2738 5.43933 37.4963 5.34714 37.6604 5.18305C37.8245 5.01895 37.9167 4.79639 37.9167 4.56433C37.9167 4.33226 37.8245 4.1097 37.6604 3.94561C37.4963 3.78152 37.2738 3.68933 37.0417 3.68933H33.3524C33.1203 3.68933 32.8978 3.78152 32.7337 3.94561C32.5696 4.1097 32.4774 4.33226 32.4774 4.56433C32.4774 4.79639 32.5696 5.01895 32.7337 5.18305C32.8978 5.34714 33.1203 5.43933 33.3524 5.43933ZM44.2387 3.68933H40.5494C40.3173 3.68933 40.0947 3.78152 39.9306 3.94561C39.7665 4.1097 39.6744 4.33226 39.6744 4.56433C39.6744 4.79639 39.7665 5.01895 39.9306 5.18305C40.0947 5.34714 40.3173 5.43933 40.5494 5.43933H44.2387C44.4707 5.43933 44.6933 5.34714 44.8574 5.18305C45.0215 5.01895 45.1137 4.79639 45.1137 4.56433C45.1137 4.33226 45.0215 4.1097 44.8574 3.94561C44.6933 3.78152 44.4707 3.68933 44.2387 3.68933ZM15.4508 50.5607H11.7614C11.5294 50.5607 11.3068 50.6529 11.1427 50.817C10.9786 50.981 10.8864 51.2036 10.8864 51.4357C10.8864 51.6677 10.9786 51.8903 11.1427 52.0544C11.3068 52.2185 11.5294 52.3107 11.7614 52.3107H15.4508C15.6828 52.3107 15.9054 52.2185 16.0695 52.0544C16.2336 51.8903 16.3258 51.6677 16.3258 51.4357C16.3258 51.2036 16.2336 50.981 16.0695 50.817C15.9054 50.6529 15.6828 50.5607 15.4508 50.5607ZM22.6476 50.5607H18.9583C18.7262 50.5607 18.5037 50.6529 18.3396 50.817C18.1755 50.981 18.0833 51.2036 18.0833 51.4357C18.0833 51.6677 18.1755 51.8903 18.3396 52.0544C18.5037 52.2185 18.7262 52.3107 18.9583 52.3107H22.6476C22.8797 52.3107 23.1022 52.2185 23.2663 52.0544C23.4304 51.8903 23.5226 51.6677 23.5226 51.4357C23.5226 51.2036 23.4304 50.981 23.2663 50.817C23.1022 50.6529 22.8797 50.5607 22.6476 50.5607ZM29.8447 50.5607H26.1554C25.9233 50.5607 25.7008 50.6529 25.5367 50.817C25.3726 50.981 25.2804 51.2036 25.2804 51.4357C25.2804 51.6677 25.3726 51.8903 25.5367 52.0544C25.7008 52.2185 25.9233 52.3107 26.1554 52.3107H29.8447C30.0768 52.3107 30.2993 52.2185 30.4634 52.0544C30.6275 51.8903 30.7197 51.6677 30.7197 51.4357C30.7197 51.2036 30.6275 50.981 30.4634 50.817C30.2993 50.6529 30.0768 50.5607 29.8447 50.5607ZM37.0417 50.5607H33.3524C33.1203 50.5607 32.8978 50.6529 32.7337 50.817C32.5696 50.981 32.4774 51.2036 32.4774 51.4357C32.4774 51.6677 32.5696 51.8903 32.7337 52.0544C32.8978 52.2185 33.1203 52.3107 33.3524 52.3107H37.0417C37.2738 52.3107 37.4963 52.2185 37.6604 52.0544C37.8245 51.8903 37.9167 51.6677 37.9167 51.4357C37.9167 51.2036 37.8245 50.981 37.6604 50.817C37.4963 50.6529 37.2738 50.5607 37.0417 50.5607ZM44.2387 50.5607H40.5494C40.3173 50.5607 40.0947 50.6529 39.9306 50.817C39.7665 50.981 39.6744 51.2036 39.6744 51.4357C39.6744 51.6677 39.7665 51.8903 39.9306 52.0544C40.0947 52.2185 40.3173 52.3107 40.5494 52.3107H44.2387C44.4707 52.3107 44.6933 52.2185 44.8574 52.0544C45.0215 51.8903 45.1137 51.6677 45.1137 51.4357C45.1137 51.2036 45.0215 50.981 44.8574 50.817C44.6933 50.6529 44.4707 50.5607 44.2387 50.5607ZM51.4357 16.3258C51.6677 16.3258 51.8903 16.2336 52.0544 16.0695C52.2185 15.9054 52.3107 15.6828 52.3107 15.4508V11.7614C52.3107 11.5294 52.2185 11.3068 52.0544 11.1427C51.8903 10.9786 51.6677 10.8864 51.4357 10.8864C51.2036 10.8864 50.981 10.9786 50.817 11.1427C50.6529 11.3068 50.5607 11.5294 50.5607 11.7614V15.4508C50.5607 15.6828 50.6529 15.9054 50.817 16.0695C50.981 16.2336 51.2036 16.3258 51.4357 16.3258ZM50.5607 22.6476C50.5607 22.8797 50.6529 23.1022 50.817 23.2663C50.981 23.4304 51.2036 23.5226 51.4357 23.5226C51.6677 23.5226 51.8903 23.4304 52.0544 23.2663C52.2185 23.1022 52.3107 22.8797 52.3107 22.6476V18.9583C52.3107 18.7262 52.2185 18.5037 52.0544 18.3396C51.8903 18.1755 51.6677 18.0833 51.4357 18.0833C51.2036 18.0833 50.981 18.1755 50.817 18.3396C50.6529 18.5037 50.5607 18.7262 50.5607 18.9583V22.6476ZM50.5607 29.8447C50.5607 30.0768 50.6529 30.2993 50.817 30.4634C50.981 30.6275 51.2036 30.7197 51.4357 30.7197C51.6677 30.7197 51.8903 30.6275 52.0544 30.4634C52.2185 30.2993 52.3107 30.0768 52.3107 29.8447V26.1554C52.3107 25.9233 52.2185 25.7008 52.0544 25.5367C51.8903 25.3726 51.6677 25.2804 51.4357 25.2804C51.2036 25.2804 50.981 25.3726 50.817 25.5367C50.6529 25.7008 50.5607 25.9233 50.5607 26.1554V29.8447ZM50.5607 37.0417C50.5607 37.2738 50.6529 37.4963 50.817 37.6604C50.981 37.8245 51.2036 37.9167 51.4357 37.9167C51.6677 37.9167 51.8903 37.8245 52.0544 37.6604C52.2185 37.4963 52.3107 37.2738 52.3107 37.0417V33.3524C52.3107 33.1203 52.2185 32.8978 52.0544 32.7337C51.8903 32.5696 51.6677 32.4774 51.4357 32.4774C51.2036 32.4774 50.981 32.5696 50.817 32.7337C50.6529 32.8978 50.5607 33.1203 50.5607 33.3524V37.0417ZM50.5607 44.2387C50.5607 44.4707 50.6529 44.6933 50.817 44.8574C50.981 45.0215 51.2036 45.1137 51.4357 45.1137C51.6677 45.1137 51.8903 45.0215 52.0544 44.8574C52.2185 44.6933 52.3107 44.4707 52.3107 44.2387V40.5494C52.3107 40.3173 52.2185 40.0947 52.0544 39.9306C51.8903 39.7665 51.6677 39.6744 51.4357 39.6744C51.2036 39.6744 50.981 39.7665 50.817 39.9306C50.6529 40.0947 50.5607 40.3173 50.5607 40.5494V44.2387ZM4.56433 16.3258C4.79639 16.3258 5.01895 16.2336 5.18305 16.0695C5.34714 15.9054 5.43933 15.6828 5.43933 15.4508V11.7614C5.43933 11.5294 5.34714 11.3068 5.18305 11.1427C5.01895 10.9786 4.79639 10.8864 4.56433 10.8864C4.33226 10.8864 4.1097 10.9786 3.94561 11.1427C3.78152 11.3068 3.68933 11.5294 3.68933 11.7614V15.4508C3.68933 15.6828 3.78152 15.9054 3.94561 16.0695C4.1097 16.2336 4.33226 16.3258 4.56433 16.3258ZM3.68933 22.6476C3.68933 22.8797 3.78152 23.1022 3.94561 23.2663C4.1097 23.4304 4.33226 23.5226 4.56433 23.5226C4.79639 23.5226 5.01895 23.4304 5.18305 23.2663C5.34714 23.1022 5.43933 22.8797 5.43933 22.6476V18.9583C5.43933 18.7262 5.34714 18.5037 5.18305 18.3396C5.01895 18.1755 4.79639 18.0833 4.56433 18.0833C4.33226 18.0833 4.1097 18.1755 3.94561 18.3396C3.78152 18.5037 3.68933 18.7262 3.68933 18.9583V22.6476ZM3.68933 29.8447C3.68933 30.0768 3.78152 30.2993 3.94561 30.4634C4.1097 30.6275 4.33226 30.7197 4.56433 30.7197C4.79639 30.7197 5.01895 30.6275 5.18305 30.4634C5.34714 30.2993 5.43933 30.0768 5.43933 29.8447V26.1554C5.43933 25.9233 5.34714 25.7008 5.18305 25.5367C5.01895 25.3726 4.79639 25.2804 4.56433 25.2804C4.33226 25.2804 4.1097 25.3726 3.94561 25.5367C3.78152 25.7008 3.68933 25.9233 3.68933 26.1554V29.8447ZM3.68933 37.0417C3.68933 37.2738 3.78152 37.4963 3.94561 37.6604C4.1097 37.8245 4.33226 37.9167 4.56433 37.9167C4.79639 37.9167 5.01895 37.8245 5.18305 37.6604C5.34714 37.4963 5.43933 37.2738 5.43933 37.0417V33.3524C5.43933 33.1203 5.34714 32.8978 5.18305 32.7337C5.01895 32.5696 4.79639 32.4774 4.56433 32.4774C4.33226 32.4774 4.1097 32.5696 3.94561 32.7337C3.78152 32.8978 3.68933 33.1203 3.68933 33.3524V37.0417ZM3.68933 44.2387C3.68933 44.4707 3.78152 44.6933 3.94561 44.8574C4.1097 45.0215 4.33226 45.1137 4.56433 45.1137C4.79639 45.1137 5.01895 45.0215 5.18305 44.8574C5.34714 44.6933 5.43933 44.4707 5.43933 44.2387V40.5494C5.43933 40.3173 5.34714 40.0947 5.18305 39.9306C5.01895 39.7665 4.79639 39.6744 4.56433 39.6744C4.33226 39.6744 4.1097 39.7665 3.94561 39.9306C3.78152 40.0947 3.68933 40.3173 3.68933 40.5494V44.2387Z" fill="black"/>
</g>
<defs>
<clipPath id="clip0_319_2229">
<rect width="56" height="56" fill="white"/>
</clipPath>
</defs>
</svg>
