<svg width="56" height="56" viewBox="0 0 56 56" fill="none" xmlns="http://www.w3.org/2000/svg">
<path d="M55.937 47.376C55.9274 47.3506 55.9151 47.3279 55.9029 47.3042C55.8854 47.2701 55.8749 47.2342 55.853 47.2028L47.103 34.0777C47.0864 34.0541 47.0619 34.041 47.0452 34.02C46.9738 33.93 46.8844 33.8558 46.7827 33.8021C46.6821 33.7485 46.5717 33.7158 46.4581 33.7059C46.4293 33.7015 46.4039 33.6875 46.375 33.6875H35.5617C38.8255 29.3458 42 23.6548 42 17.9375C42 10.2183 35.7192 3.9375 28 3.9375C20.2808 3.9375 14 10.2183 14 17.9375C14 23.6548 17.1745 29.3458 20.4382 33.6875H9.625C9.59612 33.6875 9.57075 33.7015 9.54187 33.705C9.42817 33.7153 9.31769 33.7484 9.21699 33.8022C9.11629 33.856 9.02741 33.9295 8.95562 34.0182C8.93725 34.0401 8.91275 34.0532 8.897 34.0769L0.147 47.2019C0.126 47.2334 0.114625 47.2692 0.097125 47.3034C0.084875 47.327 0.072625 47.3498 0.063 47.3751C0.0259107 47.4691 0.0057662 47.569 0.0035 47.67C0.0035 47.6761 0 47.6814 0 47.6875V51.1875C0 51.4196 0.0921872 51.6421 0.256282 51.8062C0.420376 51.9703 0.642936 52.0625 0.875 52.0625H55.125C55.3571 52.0625 55.5796 51.9703 55.7437 51.8062C55.9078 51.6421 56 51.4196 56 51.1875V47.6875C56 47.6814 55.9965 47.6761 55.9965 47.67C55.9941 47.5693 55.974 47.4697 55.937 47.376ZM47.9334 46.8125L47.0995 45.0625H52.3241L53.4905 46.8125H47.9334ZM44.5961 39.8125L42.511 35.4375H45.9069L48.8232 39.8125H44.5961ZM28 5.6875C34.755 5.6875 40.25 11.1825 40.25 17.9375C40.25 27.3298 30.499 37.1385 28 39.4984C27.6703 39.186 27.3448 38.8692 27.0235 38.5481C26.9416 38.3863 26.8109 38.2544 26.6499 38.171C23.0694 34.5258 15.75 26.0776 15.75 17.9375C15.75 11.1825 21.245 5.6875 28 5.6875ZM36.4709 39.8125L37.2234 42.4375H18.7766L19.5291 39.8125H25.7976C26.3246 40.3388 26.8665 40.85 27.4225 41.3455C27.5824 41.485 27.7874 41.5619 27.9996 41.5619C28.2118 41.5619 28.4168 41.485 28.5766 41.3455C28.6869 41.2492 29.3002 40.705 30.2015 39.8125H36.4709ZM24.1045 38.0625H18.8711C18.8527 38.0625 18.8379 38.0721 18.8186 38.073C18.7591 38.0765 18.7031 38.0922 18.6454 38.108C18.5911 38.1229 18.5395 38.1343 18.4896 38.1588C18.4406 38.1824 18.3995 38.2156 18.3566 38.2489C18.3102 38.2839 18.2647 38.3154 18.2262 38.3591C18.1912 38.3976 18.1676 38.4431 18.1388 38.4878C18.1064 38.5411 18.0749 38.5919 18.0539 38.6522C18.0477 38.6689 18.0355 38.6803 18.0303 38.6978L16.7755 43.0728C16.7641 43.113 16.7711 43.1515 16.7659 43.1917C16.7597 43.2337 16.7414 43.2705 16.7414 43.3142C16.7414 43.3326 16.751 43.3484 16.7519 43.3667C16.7563 43.4271 16.7711 43.4831 16.7869 43.5409C16.8026 43.5942 16.8131 43.6468 16.8376 43.6958C16.8621 43.7448 16.8945 43.7859 16.9277 43.8288C16.9628 43.876 16.9951 43.9206 17.038 43.96C17.0765 43.9941 17.122 44.0177 17.1658 44.0457C17.2171 44.0805 17.2723 44.1093 17.3302 44.1315C17.3469 44.1376 17.3582 44.1499 17.3757 44.1551C17.4554 44.1779 17.5359 44.1884 17.6146 44.1892H38.3854C38.465 44.1884 38.5455 44.1779 38.6242 44.1551C38.6418 44.1499 38.6531 44.1367 38.6698 44.1315C38.7279 44.1098 38.7832 44.081 38.8343 44.0457C38.8789 44.0186 38.9244 43.9941 38.962 43.96C39.0049 43.9206 39.0373 43.8742 39.0723 43.8288C39.1046 43.785 39.1379 43.7439 39.1624 43.6958C39.1869 43.6476 39.1982 43.5942 39.2131 43.54C39.2289 43.4831 39.2437 43.4271 39.2481 43.3667C39.249 43.3484 39.2586 43.3335 39.2586 43.3142C39.2586 43.2705 39.2402 43.2337 39.2341 43.1917C39.2289 43.1515 39.2359 43.113 39.2245 43.0728L37.9697 38.6978C37.9645 38.6803 37.9514 38.6689 37.9461 38.6522C37.9244 38.5938 37.8956 38.5383 37.8604 38.4869C37.8333 38.4422 37.8088 38.3976 37.7746 38.3591C37.7353 38.3154 37.688 38.283 37.6408 38.248C37.5979 38.2156 37.5585 38.1833 37.5112 38.1596C37.4605 38.1351 37.4071 38.1229 37.352 38.108C37.2967 38.0906 37.2399 38.0789 37.1823 38.073C37.1639 38.0721 37.1481 38.0625 37.1289 38.0625H31.8955C32.6854 37.2108 33.4494 36.3354 34.1862 35.4375H40.5729L43.253 41.0602C43.2941 41.1477 43.3493 41.2213 43.4131 41.2869C43.4333 41.3079 43.4586 41.3236 43.4805 41.3429C43.5614 41.4141 43.6553 41.4691 43.757 41.5047C43.8288 41.5292 43.9031 41.5441 43.9801 41.5503C44.002 41.552 44.0221 41.5634 44.0449 41.5634H49.9905L51.1569 43.3134H45.7135C45.7082 43.3134 45.7039 43.316 45.6995 43.316C45.6278 43.3178 45.5586 43.3396 45.4878 43.3589C45.4449 43.3711 45.3994 43.3737 45.36 43.3913C45.3512 43.3947 45.3425 43.3939 45.3355 43.3974C45.2821 43.4227 45.2445 43.4648 45.1999 43.4989C45.1605 43.5278 45.1176 43.5514 45.0844 43.5864C45.0345 43.6389 45.0013 43.6992 44.9662 43.7605C44.9461 43.7964 44.919 43.8279 44.9041 43.8664C44.8774 43.9419 44.8615 44.0209 44.8569 44.1009C44.8534 44.1306 44.8385 44.1569 44.8385 44.1892C44.8385 44.1945 44.8411 44.198 44.8411 44.2024C44.842 44.2697 44.8639 44.3345 44.8814 44.4027C44.8945 44.4509 44.898 44.5008 44.9173 44.5454C44.9207 44.5524 44.919 44.5594 44.9225 44.5646L45.9953 46.8142H10.0048L13.9965 38.4414C13.9991 38.4361 13.9982 38.43 14.0009 38.4248C14.028 38.3661 14.0359 38.2987 14.049 38.2331C14.0595 38.1824 14.0779 38.1351 14.0788 38.0853C14.0788 38.0774 14.0831 38.0713 14.0831 38.0642C14.0831 38.0135 14.063 37.9706 14.0543 37.9216C14.0446 37.8647 14.0411 37.8061 14.0201 37.7519C13.9983 37.6941 13.9615 37.646 13.9274 37.5935C13.9002 37.5506 13.8784 37.506 13.8434 37.4684C13.7944 37.4167 13.7349 37.3809 13.6754 37.3424C13.643 37.3214 13.6202 37.2907 13.5844 37.2741C13.5791 37.2715 13.573 37.2724 13.5677 37.2698C13.5126 37.2453 13.4514 37.2391 13.3927 37.2251C13.3359 37.2129 13.2808 37.1928 13.2248 37.1919C13.2186 37.1919 13.2143 37.1884 13.2081 37.1884H8.92762L10.094 35.4384H21.8138C22.5508 36.3359 23.3148 37.211 24.1045 38.0625ZM7.7595 38.9375H11.8204L8.06662 46.8125H2.5095L7.7595 38.9375ZM54.25 50.3125H1.75V48.5625H54.25V50.3125Z" fill="black"/>
<path d="M21.0001 22.3134C21.0053 26.1678 24.1422 29.302 27.9983 29.302C31.8545 29.302 34.9913 26.1678 34.9966 22.3134C34.9966 22.309 34.9992 22.3064 34.9992 22.302V17.934L35.0001 17.9296C35.0001 14.07 31.8588 10.9296 27.9983 10.9296C24.1378 10.9296 20.9966 14.07 20.9966 17.9296L20.9975 17.934V22.302C20.9975 22.3064 21.0001 22.309 21.0001 22.3134ZM27.9983 27.552C27.109 27.5511 26.2344 27.3239 25.457 26.892C24.6796 26.46 24.0248 25.8374 23.5542 25.0827C24.7635 26.0794 26.3113 26.6788 27.9983 26.6788C29.6853 26.6788 31.2332 26.0785 32.4425 25.0827C31.9719 25.8374 31.3171 26.46 30.5397 26.892C29.7622 27.3239 28.8877 27.5511 27.9983 27.552ZM33.2501 17.9261L33.2492 17.9296V19.6709L33.2475 19.6796C33.2475 21.9179 31.837 23.8271 29.8603 24.5814C29.9618 24.3653 30.0598 24.1386 30.1412 23.8936C30.619 22.4621 30.7423 20.3096 28.617 18.186C26.2396 15.8104 27.714 13.5048 28.3746 12.6989C31.0932 12.8923 33.2483 15.1594 33.2501 17.9261ZM26.1363 13.027C26.0293 13.2508 25.9355 13.4808 25.8555 13.7156C25.3777 15.1471 25.2543 17.2996 27.3797 19.4224C29.7588 21.8006 28.281 24.1071 27.6221 24.9095C24.9043 24.7153 22.7492 22.4473 22.7492 19.6788L22.7475 19.67V17.9288L22.7466 17.9253C22.7483 15.6888 24.1588 13.7795 26.1363 13.027Z" fill="black"/>
</svg>
