<svg width="56" height="56" viewBox="0 0 56 56" fill="none" xmlns="http://www.w3.org/2000/svg">
<g clip-path="url(#clip0_319_2240)">
<path d="M6.73755 37.6687L4.6813 38.3337L2.9313 32.9787L1.2688 33.5212L3.0188 38.8675C3.1588 39.3137 3.4738 39.6812 3.88505 39.8912C4.2963 40.1012 4.7688 40.145 5.2238 39.9962L7.28005 39.3312C8.24255 41.09 9.4238 42.7262 10.815 44.205L9.5463 45.955C9.2663 46.3312 9.15255 46.795 9.22255 47.25C9.29255 47.7137 9.5463 48.125 9.92255 48.405L14.1663 51.485C14.5513 51.765 15.015 51.8787 15.4788 51.8C15.9425 51.73 16.345 51.4762 16.6163 51.1L17.8938 49.3587C19.7138 50.2337 21.6388 50.855 23.6163 51.2225V53.3837C23.6163 54.3462 24.4038 55.1337 25.3663 55.1337H30.6163C31.5788 55.1337 32.3663 54.3462 32.3663 53.3837V51.2225C34.3438 50.855 36.2688 50.225 38.0975 49.35L39.3575 51.0912C39.6288 51.4762 40.0313 51.7212 40.495 51.8C40.9675 51.8787 41.4313 51.765 41.8075 51.485L46.0513 48.405C46.4363 48.125 46.6813 47.7137 46.7513 47.25C46.8213 46.7862 46.7075 46.3312 46.4363 45.955L45.1763 44.1962C46.5588 42.735 47.7488 41.0987 48.7025 39.3225L50.7588 39.9962C51.205 40.1362 51.6775 40.1012 52.0975 39.8912C52.5175 39.6725 52.8238 39.3137 52.9638 38.8675L54.7138 33.5125L53.0513 32.97L51.3013 38.3337L49.245 37.66C48.4575 37.3975 47.5913 37.7475 47.1625 38.4912C46.2726 40.1245 45.1756 41.6362 43.8988 42.9887C43.3125 43.61 43.2513 44.555 43.75 45.22L45.0188 46.97L40.775 50.05L39.4975 48.2912C39.2548 47.9632 38.9057 47.7298 38.5098 47.6308C38.114 47.5318 37.6961 47.5735 37.3275 47.7487C35.6388 48.5537 33.8625 49.1312 32.0513 49.4725C31.22 49.63 30.6075 50.3475 30.6075 51.1875V53.3487H25.3575V51.1875C25.3575 50.3475 24.7538 49.6212 23.9138 49.4725C22.0938 49.1312 20.3175 48.5537 18.62 47.74C17.85 47.39 16.9575 47.6087 16.4588 48.2912L15.19 50.0412L10.9463 46.9612L12.2063 45.22C12.7138 44.5462 12.6525 43.6012 12.0575 42.98C10.7765 41.6225 9.6765 40.1049 8.78505 38.465C8.36505 37.7387 7.4988 37.3887 6.7113 37.6512L6.73755 37.6687Z" fill="black"/>
<path d="M28 46.375C36.0762 46.375 43.12 41.2038 45.5262 33.5125L43.855 32.9875C41.6763 39.9438 35.3062 44.625 27.9912 44.625C20.6763 44.625 14.3062 39.9525 12.1275 32.9875L10.4563 33.5125C12.8625 41.2038 19.9062 46.375 27.9825 46.375H28ZM0.875 29.75H55.125V31.5H0.875V29.75ZM51.625 28V15.75C51.625 15.2688 51.2313 14.875 50.75 14.875H43.75V1.75C43.75 1.26875 43.3563 0.875 42.875 0.875H32.375C31.8937 0.875 31.5 1.26875 31.5 1.75V10.5H24.5V7C24.5 6.7375 24.3862 6.4925 24.185 6.32625L18.935 1.95125C18.778 1.81981 18.5798 1.74778 18.375 1.74778C18.1702 1.74778 17.972 1.81981 17.815 1.95125L12.565 6.32625C12.3637 6.4925 12.25 6.7375 12.25 7V14H5.25C4.76875 14 4.375 14.3938 4.375 14.875V28H6.125V15.75H12.25V28H14V7.41125L18.375 3.7625L22.75 7.41125V28H24.5V12.25H31.5V28H33.25V2.625H42V28H43.75V16.625H49.875V28H51.625Z" fill="black"/>
<path d="M35 5.25H36.75V7H35V5.25ZM38.5 5.25H40.25V7H38.5V5.25ZM35 9.625H36.75V11.375H35V9.625ZM38.5 9.625H40.25V11.375H38.5V9.625ZM35 14H36.75V15.75H35V14ZM38.5 14H40.25V15.75H38.5V14ZM15.75 8.75H21V10.5H15.75V8.75ZM15.75 13.125H21V14.875H15.75V13.125Z" fill="black"/>
</g>
<defs>
<clipPath id="clip0_319_2240">
<rect width="56" height="56" fill="white"/>
</clipPath>
</defs>
</svg>
