<svg width="56" height="56" viewBox="0 0 56 56" fill="none" xmlns="http://www.w3.org/2000/svg">
<path d="M39.6221 16.3964C41.2737 16.3964 42.596 15.5028 43.249 13.9431C43.9796 12.1986 43.7073 9.97281 42.6278 8.87469C41.8359 8.06969 40.881 7.69453 39.6243 7.69453C38.3632 7.69453 37.4073 8.06969 36.6154 8.87469C35.5359 9.97172 35.2624 12.1986 35.9942 13.942C36.6471 15.5017 37.9695 16.3964 39.6221 16.3964ZM37.5506 9.79562C38.0942 9.24328 38.7143 9.00703 39.6243 9.00703C40.5299 9.00703 41.149 9.24328 41.6926 9.79562C42.4046 10.5186 42.5632 12.1866 42.0393 13.4356C41.7243 14.187 41.0495 15.0839 39.6221 15.0839C38.1948 15.0839 37.5188 14.1881 37.2038 13.4356C36.681 12.1866 36.8396 10.5197 37.5506 9.79562ZM9.64244 24.3359C10.0045 24.3359 10.2987 24.0417 10.2987 23.6797V23.0541C10.2987 20.4422 12.2565 18.317 14.6628 18.317H17.9823C18.0063 18.317 18.0293 18.3181 18.0534 18.3192C17.3523 19.5661 16.9848 20.9617 16.9848 22.4131V24.0122C16.9848 24.3742 17.279 24.6684 17.641 24.6684C18.0031 24.6684 18.2973 24.3742 18.2973 24.0122V22.4131C18.2973 19.4841 20.0692 16.8995 22.7598 15.8222L27.3929 24.4223C27.4491 24.5266 27.5324 24.6137 27.6341 24.6744C27.7358 24.7351 27.852 24.7671 27.9704 24.7671C28.0888 24.7671 28.205 24.7351 28.3067 24.6744C28.4084 24.6137 28.4917 24.5266 28.5479 24.4223L33.181 15.8222C35.8717 16.8984 37.6435 19.483 37.6435 22.4131V24.0122C37.6435 24.3742 37.9378 24.6684 38.2998 24.6684C38.6618 24.6684 38.956 24.3742 38.956 24.0122V22.4131C38.956 20.9617 38.5885 19.5661 37.8874 18.3192C37.9115 18.3192 37.9356 18.317 37.9585 18.317H41.2781C43.6843 18.317 45.6421 20.4422 45.6421 23.0541V23.6797C45.6421 24.0417 45.9363 24.3359 46.2984 24.3359C46.6604 24.3359 46.9546 24.0417 46.9546 23.6797V23.0541C46.9546 19.7181 44.4084 17.0045 41.2781 17.0045H37.9585C37.6512 17.0045 37.3438 17.0319 37.042 17.0844C36.0073 15.8277 34.6106 14.8772 33.0673 14.3894C32.7665 14.2942 32.4417 14.4266 32.2918 14.7044L29.8353 19.2642L29.3792 17.6367C29.3201 17.4256 29.3529 17.2353 29.4809 17.057L30.9246 15.038C30.9947 14.9399 31.0365 14.8245 31.0453 14.7043C31.0542 14.5841 31.0299 14.4638 30.9749 14.3566C30.8623 14.1378 30.637 14 30.3909 14H25.5499C25.3038 14 25.0785 14.1378 24.9659 14.3566C24.8532 14.5753 24.8729 14.8389 25.0162 15.038L26.4621 17.0603C26.589 17.2375 26.6229 17.4267 26.5649 17.6367L26.1143 19.2806L23.649 14.7044C23.5765 14.5699 23.4594 14.4649 23.3179 14.4074C23.1764 14.35 23.0193 14.3436 22.8735 14.3894C21.3303 14.8772 19.9335 15.8277 18.8988 17.0844C18.597 17.0319 18.2896 17.0056 17.9823 17.0056H14.6628C11.5324 17.0056 8.98619 19.7192 8.98619 23.0552V23.6808C8.98619 24.0428 9.28041 24.3359 9.64244 24.3359ZM27.5296 16.2958L26.8253 15.3114H29.1178L28.4167 16.2914C28.0579 16.7923 27.9518 17.3961 28.1181 17.9889L28.9417 20.9256L27.9715 22.7259L27.0156 20.9519L27.8304 17.9812C27.9923 17.3928 27.8862 16.7945 27.5296 16.2958ZM16.3231 16.3964C17.9746 16.3964 19.297 15.5028 19.9499 13.9431C20.6806 12.1986 20.4082 9.97281 19.3287 8.87578C18.5368 8.07078 17.582 7.69563 16.3253 7.69563C15.0642 7.69563 14.1082 8.07078 13.3163 8.87578C12.2368 9.97281 11.9634 12.1997 12.6951 13.9431C13.3481 15.5017 14.6704 16.3964 16.3231 16.3964ZM14.2515 9.79562C14.7951 9.24328 15.4153 9.00703 16.3253 9.00703C17.2309 9.00703 17.8499 9.24328 18.3935 9.79562C19.1056 10.5186 19.2642 12.1866 18.7403 13.4356C18.4253 14.187 17.7504 15.0839 16.3231 15.0839C14.8957 15.0839 14.2198 14.1881 13.9048 13.4356C13.3809 12.1866 13.5395 10.5197 14.2515 9.79562ZM27.9726 13.6675C30.2432 13.6675 32.061 12.437 32.9601 10.2911C33.9773 7.86297 33.6087 4.77641 32.1212 3.26375C31.0318 2.15578 29.7149 1.64062 27.9759 1.64062C26.2324 1.64062 24.9123 2.15688 23.8229 3.26375C22.3354 4.77641 21.9657 7.86297 22.9829 10.2911C23.8831 12.437 25.7009 13.6675 27.9726 13.6675ZM24.7592 4.18469C25.6079 3.32172 26.5704 2.95312 27.9759 2.95312C29.3573 2.95312 30.3471 3.33266 31.1849 4.18469C32.2918 5.31016 32.5499 7.87391 31.7493 9.78469C31.2582 10.9572 30.2038 12.355 27.9726 12.355C25.7403 12.355 24.6859 10.9572 24.1937 9.78359C23.3942 7.87391 23.6523 5.30906 24.7592 4.18469ZM51.9673 36.8014L44.7781 25.1278C44.1798 24.1555 42.9012 23.8514 41.9288 24.4497L38.6924 26.4403C38.2221 26.7291 37.8929 27.1852 37.7649 27.7244C37.637 28.2636 37.7256 28.8192 38.0143 29.2895L38.0438 29.3377C37.8809 29.3869 37.7146 29.4372 37.5506 29.4864C37.0967 29.6242 36.6263 29.7664 36.2479 29.8714C35.9931 29.9414 35.7765 29.9403 35.5238 29.8659L32.329 28.9275C29.7696 28.1761 26.5879 29.6395 24.6848 30.8842C23.3657 30.4303 22.0401 30.2258 20.6423 30.2619L17.9013 29.2086L17.9571 29.1167C18.2448 28.6464 18.3312 28.0897 18.201 27.5516C18.0709 27.0123 17.7395 26.5573 17.2692 26.2708L14.0262 24.2911C13.0517 23.6961 11.7742 24.0045 11.1792 24.9791L4.02932 36.6745C3.74166 37.1448 3.65525 37.7016 3.78541 38.2397C3.91557 38.7789 4.24697 39.2339 4.71728 39.5205L7.96025 41.5002C8.29603 41.7058 8.669 41.8031 9.0365 41.8031C9.73541 41.8031 10.4179 41.4509 10.8073 40.8122L11.142 40.2653C11.6899 41.1622 12.3954 42.0777 13.2496 43.0008L12.4993 44.3013C12.1471 44.9116 12.0542 45.6247 12.2379 46.3083C12.4217 46.9919 12.8592 47.5628 13.4695 47.915C13.8851 48.1545 14.3379 48.2672 14.7863 48.2672C14.9953 48.2672 15.202 48.2409 15.4043 48.1928C15.4275 48.6336 15.5609 49.0615 15.7923 49.4374C16.0237 49.8132 16.3457 50.125 16.7288 50.3442C17.1434 50.5827 17.5962 50.6953 18.0435 50.6953C18.4187 50.6953 18.7884 50.6144 19.1296 50.4623C19.3199 51.1284 19.752 51.6841 20.3503 52.0286C20.7648 52.267 21.2176 52.3797 21.6649 52.3797C22.2424 52.3797 22.809 52.1905 23.2728 51.8394C23.4663 52.3644 23.8546 52.7964 24.4376 53.1311C24.8521 53.3695 25.3049 53.4822 25.7523 53.4822C26.6262 53.4822 27.4771 53.0491 27.9781 52.2736C28.3106 52.5022 28.8585 52.8959 29.762 53.5708L29.8473 53.6342C30.5276 54.1406 31.2856 54.3605 32.0042 54.3605C33.0159 54.3605 33.951 53.9252 34.4881 53.2383C34.8228 52.8106 34.9671 52.3414 34.931 51.8766C36.0532 51.905 37.0551 51.3297 37.6162 50.5356C38.0132 49.9734 38.1696 49.362 38.0963 48.7878C39.2448 48.8064 40.2346 48.2289 40.7399 47.4534C41.0703 46.947 41.1884 46.3958 41.1053 45.8642C41.8698 45.8128 42.5774 45.4202 42.9865 44.8766C43.3474 44.3975 43.5509 43.6888 43.2599 42.9516C44.089 42.7317 44.8579 42.2538 45.3588 41.6041C45.4201 41.5253 45.4748 41.4455 45.5262 41.3645C45.9167 41.7408 46.4373 41.9442 46.9667 41.9442C47.3363 41.9442 47.7115 41.8458 48.0484 41.638L51.2848 39.6473C51.7551 39.3586 52.0843 38.9025 52.2123 38.3633C52.3446 37.8262 52.256 37.2706 51.9673 36.8014ZM9.68728 40.1286C9.46853 40.4862 9.00041 40.5989 8.64385 40.3802L5.40088 38.4005C5.22916 38.2955 5.10885 38.1292 5.06072 37.9312C5.0126 37.7333 5.04432 37.5298 5.14932 37.3581L12.3003 25.6605C12.3684 25.5494 12.4639 25.4576 12.5776 25.394C12.6914 25.3304 12.8196 25.2971 12.9499 25.2973C13.0845 25.2973 13.2212 25.3334 13.3448 25.4089L16.5878 27.3886C16.7595 27.4936 16.8798 27.6598 16.9279 27.8578C16.976 28.0558 16.9443 28.2592 16.8393 28.4309L9.68728 40.1286ZM14.1246 46.7775C13.8184 46.6003 13.5974 46.3138 13.5056 45.9681C13.4126 45.6225 13.4596 45.2638 13.6357 44.9575L16.4335 40.1067C16.6807 39.6791 17.1303 39.4395 17.5929 39.4395C17.8182 39.4395 18.0479 39.4964 18.2568 39.6178C18.5631 39.795 18.784 40.0816 18.8759 40.4272C18.9678 40.7706 18.9229 41.1283 18.7479 41.4334L18.7457 41.4378L15.9479 46.2886C15.5804 46.9252 14.7623 47.145 14.1246 46.7775ZM17.3829 49.2078C16.7978 48.8709 16.5549 48.1261 16.8295 47.5092L16.8448 47.4742C17.0209 47.0783 17.0734 46.9667 17.0887 46.935L19.881 42.093C19.9412 41.9978 20.3021 41.4575 20.3503 41.3886C20.744 40.8373 21.5129 40.67 22.1013 41.008C22.4087 41.1841 22.6285 41.4717 22.7215 41.8173C22.8145 42.1619 22.7685 42.5206 22.5924 42.8269L19.3746 48.4181C19.3167 48.5187 19.2663 48.6227 19.2226 48.7287L19.2029 48.7178C18.8376 49.3544 18.0206 49.5742 17.3829 49.2078ZM21.0054 50.8922C20.6981 50.7161 20.4782 50.4284 20.3853 50.0828C20.2923 49.7372 20.3382 49.3784 20.5143 49.0722L23.7321 43.482L23.7332 43.4798L23.9038 43.1845C24.151 42.7558 24.6006 42.5163 25.0632 42.5163C25.2885 42.5163 25.5171 42.5731 25.726 42.6934C26.0334 42.8695 26.2532 43.1572 26.3462 43.5028C26.4392 43.8484 26.3932 44.2072 26.2171 44.5134L22.8287 50.4011C22.4612 51.0387 21.6431 51.2597 21.0054 50.8922ZM25.0928 51.9947C24.5153 51.6633 24.0887 51.1317 24.8576 49.5053L26.5223 46.6134C26.8056 46.1213 27.8567 45.7942 28.4626 46.142C28.7699 46.3181 28.9898 46.6058 29.0828 46.9503C29.1757 47.2948 29.1298 47.6547 28.9537 47.9609L26.9149 51.5025C26.5485 52.1413 25.7304 52.3622 25.0928 51.9947ZM41.9409 44.0902C41.6149 44.5222 40.8843 44.7409 40.3167 44.3767C39.411 43.797 38.4835 43.2239 37.5867 42.6705C37.1306 42.3894 36.6756 42.1072 36.2206 41.8239C35.9132 41.6325 35.5085 41.7266 35.316 42.0339C35.1246 42.3412 35.2187 42.7459 35.526 42.9384C35.9821 43.2228 36.4393 43.505 36.8965 43.7872C37.6895 44.2772 38.5065 44.7814 39.3071 45.2911C39.842 45.7373 39.9612 46.2525 39.6418 46.7414C39.2317 47.3714 38.2254 47.7531 37.1579 47.2391L33.8581 44.9247C33.5617 44.7169 33.1515 44.7891 32.9437 45.0855C32.7359 45.3819 32.807 45.792 33.1045 45.9998L36.424 48.3273C37.0737 48.8764 36.727 49.5272 36.5465 49.7831C36.1429 50.3541 35.1268 50.9502 33.9696 50.2687L31.8882 48.7517C31.7476 48.6494 31.5721 48.607 31.4003 48.6338C31.2285 48.6607 31.0743 48.7546 30.9717 48.895C30.9209 48.9647 30.8844 49.0436 30.8642 49.1274C30.844 49.2112 30.8405 49.2981 30.8539 49.3832C30.8674 49.4683 30.8974 49.5499 30.9424 49.6235C30.9873 49.697 31.0464 49.7609 31.116 49.8116L33.2062 51.3341C33.8778 51.8952 33.5628 52.2988 33.4578 52.4322C32.9918 53.0272 31.6924 53.3717 30.6337 52.5842L30.5495 52.5208C29.6778 51.87 29.0576 51.4205 28.6409 51.1383L30.0912 48.6183C30.4423 48.008 30.5342 47.2948 30.3504 46.6113C30.1667 45.9277 29.7281 45.3578 29.1167 45.0067C28.6595 44.7442 28.1115 44.6491 27.569 44.695C27.7353 44.2039 27.7528 43.6745 27.6138 43.1616C27.429 42.478 26.9915 41.9081 26.3801 41.557C25.6178 41.1184 24.7263 41.1042 23.9793 41.4378C23.789 40.7717 23.357 40.2161 22.7576 39.8716C22.3503 39.6362 21.8874 39.5142 21.417 39.518C20.9465 39.5219 20.4857 39.6515 20.0823 39.8934C19.8723 39.2962 19.4643 38.7986 18.9131 38.4814C17.6487 37.753 16.0278 38.1894 15.2982 39.4527L13.9387 41.8086C13.0812 40.845 12.4053 39.9 11.924 38.9878L17.2057 30.3472L20.2945 31.535C20.3776 31.5667 20.4651 31.582 20.5537 31.5788C21.5238 31.5438 22.4546 31.64 23.3723 31.8675C22.7696 32.3958 22.1856 33.0652 21.6321 33.8669C21.1388 34.5822 21.0798 35.4703 21.4757 36.2447C21.8717 37.018 22.6263 37.4916 23.4948 37.5102C25.3279 37.5506 26.227 36.6253 27.1818 35.6453C27.2792 35.5447 27.3787 35.443 27.4815 35.3402C28.3795 35.6453 29.261 35.5206 30.112 34.9694L36.2632 39.2536L41.6696 42.9439C41.9835 43.2261 42.2734 43.6494 41.9409 44.0902ZM44.3231 40.8056C43.8812 41.3777 43.0488 41.7692 42.2887 41.7758L37.0081 38.1719L30.4784 33.6241C30.3612 33.5425 30.2206 33.5014 30.0779 33.5069C29.9352 33.5124 29.7982 33.5643 29.6876 33.6547C28.9799 34.2333 28.3423 34.3339 27.6204 33.9784C27.4996 33.9189 27.3635 33.898 27.2304 33.9186C27.0974 33.9391 26.9739 34.0001 26.8767 34.0933C26.6481 34.312 26.4413 34.5242 26.2412 34.7287C25.364 35.63 24.7865 36.2206 23.5243 36.1966C23.1349 36.1878 22.8221 35.992 22.6449 35.6453C22.4678 35.2986 22.4918 34.9311 22.7128 34.6106C23.3176 33.7345 23.9509 33.0433 24.594 32.5588C24.5973 32.5555 24.6017 32.5533 24.6049 32.55C26.6349 30.9531 29.9009 29.5816 31.9582 30.1853L35.152 31.1237C35.6365 31.2659 36.1101 31.2703 36.5968 31.1347C36.9895 31.0253 37.4674 30.8809 37.929 30.742C38.2068 30.6578 38.4901 30.5725 38.7548 30.4948L44.5714 39.9394C44.6556 40.2773 44.486 40.5934 44.3231 40.8056ZM50.9403 38.0614C50.9178 38.1584 50.8762 38.2499 50.818 38.3307C50.7598 38.4114 50.6861 38.4798 50.6012 38.5317L47.3648 40.5223C47.0082 40.7422 46.5401 40.6295 46.3203 40.2741L39.131 28.6005C39.026 28.4287 38.9932 28.2264 39.0403 28.0284C39.0873 27.8305 39.2076 27.6631 39.3793 27.5581L42.6157 25.5675C42.9723 25.3487 43.4404 25.4603 43.6603 25.8158L50.8495 37.4894C50.9545 37.6611 50.9873 37.8634 50.9403 38.0614Z" fill="black"/>
</svg>
