<svg width="24" height="24" viewBox="0 0 24 24" fill="none" xmlns="http://www.w3.org/2000/svg">
<path fill-rule="evenodd" clip-rule="evenodd" d="M3.99995 11.0002L19 11C19.5523 10.9999 20 11.4476 20 11.9999C20 12.5522 19.5523 12.9999 19 13L3.99998 13.0002C3.4477 13.0002 2.99998 12.5525 2.99997 12.0002C2.99996 11.4479 3.44767 11.0002 3.99995 11.0002Z" fill="#141B34"/>
<path d="M14.2781 17.692C13.8959 17.2933 13.9093 16.6603 14.308 16.2781L18.771 12L14.308 7.7219C13.9093 7.33972 13.8959 6.7067 14.2781 6.308C14.6603 5.90931 15.2933 5.89592 15.692 6.2781L20.1994 10.5988C20.347 10.7401 20.5218 10.9075 20.652 11.071C20.8077 11.2666 21 11.5766 21 12C21 12.4234 20.8077 12.7334 20.652 12.929C20.5218 13.0925 20.347 13.2599 20.1994 13.4012L15.692 17.7219C15.2933 18.1041 14.6603 18.0907 14.2781 17.692Z" fill="#141B34"/>
</svg>
