<svg width="33" height="32" viewBox="0 0 33 32" fill="none" xmlns="http://www.w3.org/2000/svg">
<rect x="0.526367" width="32" height="32" rx="16" fill="#666666"/>
<path d="M16.0848 11.5806L17.6316 10.0338C17.9507 9.71433 18.3297 9.46089 18.7468 9.28794C19.1639 9.11499 19.611 9.02592 20.0626 9.02582C20.5141 9.02571 20.9613 9.11458 21.3785 9.28733C21.7957 9.46008 22.1748 9.71334 22.4941 10.0326C22.8134 10.3519 23.0666 10.731 23.2394 11.1482C23.4121 11.5654 23.501 12.0126 23.5009 12.4641C23.5008 12.9157 23.4117 13.3628 23.2388 13.7799C23.0658 14.197 22.8124 14.576 22.4929 14.8951L20.2832 17.1048C19.964 17.424 19.5851 17.6772 19.168 17.85C18.751 18.0227 18.304 18.1117 17.8526 18.1117C17.4011 18.1117 16.9541 18.0227 16.5371 17.85C16.12 17.6772 15.7411 17.424 15.4219 17.1048" stroke="white" stroke-width="1.5" stroke-linecap="round" stroke-linejoin="round"/>
<path d="M16.9679 20.4194L15.4211 21.9662C15.1019 22.2856 14.723 22.5391 14.3058 22.712C13.8887 22.885 13.4416 22.974 12.9901 22.9741C12.5385 22.9743 12.0914 22.8854 11.6742 22.7126C11.257 22.5399 10.8779 22.2866 10.5586 21.9673C10.2393 21.648 9.98602 21.269 9.81327 20.8518C9.64052 20.4346 9.55165 19.9874 9.55176 19.5358C9.55186 19.0843 9.64093 18.6372 9.81388 18.2201C9.98683 17.8029 10.2403 17.424 10.5597 17.1048L12.7694 14.8951C13.0886 14.5759 13.4676 14.3227 13.8846 14.15C14.3017 13.9772 14.7487 13.8883 15.2001 13.8883C15.6515 13.8883 16.0985 13.9772 16.5156 14.15C16.9326 14.3227 17.3116 14.5759 17.6308 14.8951" stroke="white" stroke-width="1.5" stroke-linecap="round" stroke-linejoin="round"/>
</svg>
