<svg width="5" height="9" viewBox="0 0 5 9" fill="none" xmlns="http://www.w3.org/2000/svg">
<g clip-path="url(#clip0_5468_26297)">
<path d="M4.48 4.82156L0.85 8.45156C0.8 8.50156 0.75 8.54156 0.69 8.56156C0.63 8.58156 0.57 8.60156 0.5 8.60156C0.37 8.60156 0.25 8.55156 0.15 8.46156C0.05 8.37156 -1.5299e-08 8.25156 -2.18557e-08 8.10156L-3.54062e-07 0.501562C-3.60619e-07 0.351562 0.0499996 0.231563 0.15 0.141562C0.25 0.0515623 0.37 0.0015621 0.5 0.0015621C0.53 0.0015621 0.65 0.0515623 0.85 0.151563L4.48 3.78156C4.56 3.86156 4.62 3.95156 4.66 4.03156C4.7 4.11156 4.71 4.21156 4.71 4.31156C4.71 4.41156 4.69 4.50156 4.66 4.59156C4.63 4.68156 4.57 4.76156 4.48 4.84156L4.48 4.82156Z" fill="#715137"/>
</g>
<defs>
<clipPath id="clip0_5468_26297">
<rect width="8.6" height="4.7" fill="white" transform="translate(0 8.60156) rotate(-90)"/>
</clipPath>
</defs>
</svg>
