<svg width="5" height="9" viewBox="0 0 5 9" fill="none" xmlns="http://www.w3.org/2000/svg">
<g clip-path="url(#clip0_5468_26302)">
<path d="M0.52 4.82156L4.15 8.45156C4.2 8.50156 4.25 8.54156 4.31 8.56156C4.37 8.58156 4.43 8.60156 4.5 8.60156C4.63 8.60156 4.75 8.55156 4.85 8.46156C4.95 8.37156 5 8.25156 5 8.10156L5 0.501562C5 0.351562 4.95 0.231563 4.85 0.141562C4.75 0.0515623 4.63 0.0015621 4.5 0.0015621C4.47 0.0015621 4.35 0.0515623 4.15 0.151563L0.52 3.78156C0.44 3.86156 0.38 3.95156 0.34 4.03156C0.3 4.11156 0.29 4.21156 0.29 4.31156C0.29 4.41156 0.31 4.50156 0.34 4.59156C0.370001 4.68156 0.43 4.76156 0.52 4.84156L0.52 4.82156Z" fill="#715137"/>
</g>
<defs>
<clipPath id="clip0_5468_26302">
<rect width="8.6" height="4.7" fill="white" transform="matrix(4.37114e-08 -1 -1 -4.37114e-08 5 8.60156)"/>
</clipPath>
</defs>
</svg>
