<svg width="374" height="430" viewBox="0 0 374 430" fill="none" xmlns="http://www.w3.org/2000/svg">
<g opacity="0.41">
<path opacity="0.4" fill-rule="evenodd" clip-rule="evenodd" d="M495.623 807.032L267.062 807.032L570.788 501.205L267.258 194.228L495.816 194.228L799.026 500.882L799.67 500.882L799.348 501.206L799.859 501.724L798.833 501.724L495.623 807.032Z" fill="url(#paint0_linear_364_2751)"/>
<path fill-rule="evenodd" clip-rule="evenodd" d="M341.234 612.803L569.795 612.803L266.07 306.977L569.6 -4.65615e-05L341.042 -2.65803e-05L37.8311 306.654L37.1873 306.654L37.5099 306.978L36.998 307.496L38.024 307.496L341.234 612.803Z" fill="url(#paint1_linear_364_2751)"/>
<path opacity="0.3" fill-rule="evenodd" clip-rule="evenodd" d="M627.375 807.032L855.936 807.032L552.21 501.205L855.74 194.228L627.182 194.228L323.972 500.882L323.328 500.882L323.651 501.206L323.139 501.724L324.165 501.724L627.375 807.032Z" fill="url(#paint2_linear_364_2751)"/>
<path opacity="0.6" fill-rule="evenodd" clip-rule="evenodd" d="M304.236 836.513L532.797 836.513L229.071 530.687L532.602 223.71L304.044 223.71L0.833012 530.364L0.189267 530.364L0.511868 530.688L-2.66908e-05 531.206L1.02599 531.206L304.236 836.513Z" fill="url(#paint3_linear_364_2751)"/>
</g>
<defs>
<linearGradient id="paint0_linear_364_2751" x1="677.378" y1="807.032" x2="677.378" y2="192.039" gradientUnits="userSpaceOnUse">
<stop stop-color="#49B8B1"/>
<stop offset="1" stop-color="#49B8B1" stop-opacity="0"/>
</linearGradient>
<linearGradient id="paint1_linear_364_2751" x1="159.48" y1="612.803" x2="159.48" y2="-2.18972" gradientUnits="userSpaceOnUse">
<stop stop-color="#49B8B1"/>
<stop offset="1" stop-color="#49B8B1" stop-opacity="0"/>
</linearGradient>
<linearGradient id="paint2_linear_364_2751" x1="445.62" y1="807.032" x2="445.62" y2="192.039" gradientUnits="userSpaceOnUse">
<stop stop-color="#49B8B1"/>
<stop offset="1" stop-color="#49B8B1" stop-opacity="0"/>
</linearGradient>
<linearGradient id="paint3_linear_364_2751" x1="122.482" y1="836.513" x2="122.482" y2="221.52" gradientUnits="userSpaceOnUse">
<stop stop-color="#49B8B1"/>
<stop offset="1" stop-color="#49B8B1" stop-opacity="0"/>
</linearGradient>
</defs>
</svg>
